<svg width="251" height="271" viewBox="0 0 251 271" fill="none" xmlns="http://www.w3.org/2000/svg">
<rect x="135.283" y="39.7517" width="53.2365" height="35.2605" rx="17.6303" fill="black"/>
<rect x="135.283" y="73.6777" width="67.7556" height="13.3857" rx="6.69283" transform="rotate(-26.7239 135.283 73.6777)" fill="#938364" stroke="black" stroke-width="3"/>
<path d="M194.742 45.6285C175.444 41.5275 153.164 57.9953 140.981 70.0695C138.067 72.9577 133.78 74.1115 129.913 72.7402L21.9546 34.4591C13.7973 31.5666 12.9171 20.3807 20.5214 16.2479L44.8317 3.03579C47.1876 1.75539 49.9591 1.47477 52.5238 2.25694L194.742 45.6285Z" fill="#938364" stroke="black" stroke-width="3" stroke-linejoin="round"/>
<path d="M192.422 55.4003C177.799 53.4228 159.363 67.4911 148.88 77.8626C146.577 80.1407 145.72 83.46 146.415 86.6238L184.201 258.869C185.546 264.997 192.135 268.388 197.902 265.921L240.824 247.559C245.493 245.562 247.924 240.383 246.477 235.516L222.397 154.521L198.392 61.4606C197.616 58.4531 195.5 55.8165 192.422 55.4003Z" fill="#938364" stroke="black" stroke-width="3" stroke-linejoin="round"/>
<path d="M168.124 63.2587L220.323 255.809" stroke="black" stroke-width="3" stroke-linejoin="round"/>
<path d="M186.869 169.987L217.958 158.269C220.767 157.21 223.932 157.431 226.355 159.203C231.302 162.819 237.307 168.53 239.131 174.72C239.762 176.864 238.309 178.907 236.225 179.716C240.719 186.528 249.5 203.748 248.67 218.129C247.84 232.509 220.899 236.796 207.533 237.142H204.885C200.336 237.142 196.36 234.071 195.21 229.669L187.137 198.77L181.06 182.925C179.074 177.748 181.68 171.943 186.869 169.987Z" fill="#938364"/>
<path d="M187.137 198.77L181.06 182.925C179.074 177.748 181.68 171.943 186.869 169.987L217.958 158.269C220.767 157.21 223.932 157.431 226.355 159.203C231.302 162.819 237.307 168.53 239.131 174.72C239.762 176.864 238.309 178.907 236.225 179.716V179.716M187.137 198.77L195.088 195.684M187.137 198.77L195.21 229.669C196.36 234.071 200.336 237.142 204.885 237.142H207.533M236.225 179.716C240.719 186.528 249.5 203.748 248.67 218.129C247.84 232.509 220.899 236.796 207.533 237.142M236.225 179.716L195.088 195.684M207.533 237.142L195.088 195.684" stroke="black" stroke-width="3" stroke-linejoin="round"/>
<path d="M210.935 193.982L209.793 190.026C208.896 186.921 210.445 183.634 213.409 182.35C216.179 181.149 219.377 182.617 220.274 185.499L221.891 190.696C222.766 193.51 221.359 196.529 218.641 197.669C215.487 198.991 211.885 197.268 210.935 193.982Z" stroke="#F9F5E0" stroke-width="3" stroke-linejoin="round"/>
<path d="M213.755 182.868L217.212 193.584" stroke="#F9F5E0" stroke-width="3" stroke-linecap="round" stroke-linejoin="round"/>
</svg>
