<svg width="350" height="374" viewBox="0 0 350 374" fill="none" xmlns="http://www.w3.org/2000/svg">
<path fill-rule="evenodd" clip-rule="evenodd" d="M15.4093 37.5747C23.8073 31.5218 44.7226 23.0712 64.89 35.4433C90.5528 51.1866 110.199 53.2363 134.686 47.7135C159.174 42.1907 184.83 77.9393 179.383 108.922C173.936 139.905 230.529 141.43 239.411 126.846C248.292 112.262 308.944 104.673 315.231 132.804C317.138 141.342 320.766 147.822 324.165 153.894C331.965 167.828 338.561 179.611 320.407 209.178C305.565 233.35 287.284 266.092 273.935 290.602L275.097 301.578C272.409 302.772 269.257 304.183 265.731 305.774C263.82 309.336 262.127 312.514 260.7 315.211L249.374 313.22C224.038 324.85 190.27 340.781 165.227 353.888C134.487 369.977 123.183 362.59 109.816 353.854C103.991 350.048 97.7742 345.985 89.3868 343.497C61.7513 335.301 73.4732 275.31 88.6311 267.447C103.789 259.585 106.14 203.02 74.8573 206.334C43.5744 209.648 9.66533 181.606 16.851 157.553C24.0367 133.501 23.3362 113.761 9.38602 87.081C-1.77412 65.737 8.64672 45.0966 15.2522 37.4444L15.4093 37.5747Z" fill="#AFAF83"/>
<path d="M64.89 35.4433L65.6744 34.1647L65.6744 34.1647L64.89 35.4433ZM15.4093 37.5747L14.4516 38.7292C14.9776 39.1655 15.732 39.1911 16.2863 38.7915L15.4093 37.5747ZM134.686 47.7135L134.356 46.2503L134.356 46.2503L134.686 47.7135ZM179.383 108.922L180.86 109.182L180.86 109.182L179.383 108.922ZM239.411 126.846L238.129 126.066L238.129 126.066L239.411 126.846ZM315.231 132.804L316.694 132.477L316.694 132.477L315.231 132.804ZM324.165 153.894L325.474 153.161L325.474 153.161L324.165 153.894ZM320.407 209.178L321.685 209.963L321.685 209.963L320.407 209.178ZM273.935 290.602L272.618 289.884C272.472 290.151 272.411 290.457 272.443 290.76L273.935 290.602ZM275.097 301.578L275.707 302.948C276.301 302.684 276.658 302.067 276.589 301.42L275.097 301.578ZM265.731 305.774L265.114 304.407C264.813 304.542 264.565 304.774 264.409 305.065L265.731 305.774ZM260.7 315.211L260.44 316.688C261.081 316.801 261.721 316.487 262.026 315.912L260.7 315.211ZM249.374 313.22L249.633 311.742C249.333 311.69 249.025 311.729 248.748 311.856L249.374 313.22ZM165.227 353.888L165.922 355.217L165.922 355.217L165.227 353.888ZM109.816 353.854L110.636 352.599L110.636 352.599L109.816 353.854ZM89.3868 343.497L88.9602 344.936L88.9602 344.936L89.3868 343.497ZM88.6311 267.447L87.9404 266.116L87.9404 266.116L88.6311 267.447ZM16.851 157.553L15.4138 157.124L15.4138 157.124L16.851 157.553ZM9.38602 87.081L8.05676 87.776L8.05676 87.776L9.38602 87.081ZM15.2522 37.4444L16.2098 36.2898C15.581 35.7683 14.6505 35.8458 14.1167 36.4642L15.2522 37.4444ZM65.6744 34.1647C44.7816 21.3476 23.1845 30.1216 14.5322 36.3578L16.2863 38.7915C24.43 32.922 44.6635 24.7947 64.1057 36.7219L65.6744 34.1647ZM134.356 46.2503C122.239 48.9831 111.406 49.8235 100.466 48.0721C89.5251 46.3204 78.3826 41.9608 65.6744 34.1647L64.1057 36.7219C77.0602 44.6691 88.5722 49.206 99.9919 51.0343C111.413 52.8628 122.646 51.9667 135.016 49.1768L134.356 46.2503ZM180.86 109.182C183.666 93.2235 178.464 76.1366 169.474 63.7473C160.524 51.4123 147.453 43.2965 134.356 46.2503L135.016 49.1768C146.408 46.6077 158.408 53.6048 167.046 65.5091C175.644 77.3592 180.547 93.638 177.906 108.662L180.86 109.182ZM238.129 126.066C236.241 129.167 231.565 131.688 225.196 133.09C218.922 134.471 211.379 134.678 204.27 133.492C197.143 132.303 190.614 129.743 186.227 125.737C181.913 121.797 179.591 116.403 180.86 109.182L177.906 108.662C176.452 116.933 179.161 123.347 184.204 127.952C189.173 132.49 196.327 135.209 203.777 136.451C211.246 137.697 219.176 137.487 225.841 136.02C232.41 134.574 238.139 131.817 240.692 127.626L238.129 126.066ZM316.694 132.477C314.991 124.853 309.598 119.735 302.596 116.586C295.621 113.45 286.936 112.203 278.276 112.307C269.603 112.41 260.839 113.869 253.65 116.244C250.055 117.431 246.82 118.858 244.176 120.483C241.547 122.097 239.41 123.963 238.129 126.066L240.692 127.626C241.631 126.083 243.333 124.521 245.746 123.039C248.143 121.567 251.153 120.228 254.591 119.092C261.468 116.821 269.925 115.407 278.312 115.307C286.711 115.206 294.923 116.425 301.366 119.322C307.781 122.207 312.327 126.69 313.767 133.131L316.694 132.477ZM325.474 153.161C322.071 147.083 318.549 140.776 316.694 132.477L313.767 133.131C315.728 141.908 319.461 148.562 322.856 154.627L325.474 153.161ZM321.685 209.963C330.84 195.053 333.89 184.413 333.518 175.61C333.146 166.819 329.354 160.093 325.474 153.161L322.856 154.627C326.776 161.629 330.183 167.761 330.52 175.737C330.857 183.7 328.128 193.735 319.128 208.393L321.685 209.963ZM275.252 291.319C288.598 266.814 306.864 234.1 321.685 209.963L319.128 208.393C304.265 232.599 285.969 265.37 272.618 289.884L275.252 291.319ZM272.443 290.76L273.606 301.736L276.589 301.42L275.426 290.443L272.443 290.76ZM274.488 300.207C271.797 301.403 268.642 302.815 265.114 304.407L266.348 307.141C269.871 305.552 273.021 304.142 275.707 302.948L274.488 300.207ZM262.026 315.912C263.451 313.218 265.143 310.043 267.053 306.483L264.409 305.065C262.497 308.629 260.803 311.809 259.374 314.509L262.026 315.912ZM249.114 314.697L260.44 316.688L260.96 313.733L249.633 311.742L249.114 314.697ZM248.748 311.856C223.407 323.489 189.61 339.433 164.531 352.559L165.922 355.217C190.93 342.129 224.668 326.211 249.999 314.583L248.748 311.856ZM164.531 352.559C149.292 360.535 139.094 362.57 131.172 361.689C123.239 360.807 117.354 356.989 110.636 352.599L108.995 355.11C115.645 359.455 122.096 363.698 130.841 364.671C139.598 365.645 150.422 363.33 165.922 355.217L164.531 352.559ZM110.636 352.599C104.818 348.796 98.4353 344.617 89.8133 342.059L88.9602 344.936C97.1131 347.354 103.164 351.299 108.995 355.11L110.636 352.599ZM89.8133 342.059C83.4852 340.182 79.3243 335.34 76.8854 328.742C74.436 322.116 73.7817 313.841 74.4566 305.468C75.1305 297.108 77.1204 288.767 79.857 282.062C81.2251 278.709 82.7666 275.798 84.3995 273.507C86.0431 271.202 87.7181 269.611 89.3218 268.779L87.9404 266.116C85.7546 267.25 83.7476 269.254 81.9567 271.766C80.1552 274.293 78.51 277.422 77.0794 280.928C74.2186 287.938 72.1632 296.582 71.4663 305.227C70.7704 313.859 71.4199 322.609 74.0715 329.782C76.7334 336.984 81.4706 342.714 88.9602 344.936L89.8133 342.059ZM89.3218 268.779C93.6779 266.519 96.8203 260.992 98.7123 254.537C100.632 247.988 101.384 240.091 100.653 232.555C99.9228 225.037 97.6997 217.714 93.5128 212.446C89.264 207.1 83.0499 203.958 74.6993 204.842L75.0154 207.826C82.3063 207.053 87.5294 209.739 91.1643 214.312C94.8612 218.964 96.9684 225.652 97.6665 232.844C98.3628 240.017 97.6403 247.529 95.8334 253.693C93.999 259.952 91.1632 264.444 87.9404 266.116L89.3218 268.779ZM74.6993 204.842C59.5293 206.449 43.6242 200.444 32.3904 191.055C21.1051 181.623 14.9456 169.171 18.2882 157.983L15.4138 157.124C11.5707 169.988 18.7729 183.583 30.4665 193.357C42.2115 203.173 58.9024 209.532 75.0154 207.826L74.6993 204.842ZM18.2882 157.983C21.9182 145.832 23.581 134.687 22.5383 123.167C21.4958 111.649 17.7573 99.854 10.7153 86.3859L8.05676 87.776C14.9649 100.988 18.5517 112.403 19.5506 123.438C20.5493 134.472 18.9694 145.222 15.4138 157.124L18.2882 157.983ZM10.7153 86.3859C-0.0443144 65.808 9.99206 45.8336 16.3876 38.4245L14.1167 36.4642C7.30138 44.3595 -3.50392 65.666 8.05676 87.776L10.7153 86.3859ZM14.2945 38.5989L14.4516 38.7292L16.3669 36.4201L16.2098 36.2898L14.2945 38.5989Z" fill="black"/>
<path d="M15.6688 38.0955L262.669 305.675" stroke="black" stroke-width="3" stroke-linecap="round" stroke-linejoin="round"/>
<path d="M106.712 136.215L97.5715 49.9296" stroke="black" stroke-width="3" stroke-linecap="round" stroke-linejoin="round"/>
<path d="M222.58 261.949L224.758 134.835" stroke="black" stroke-width="3" stroke-linecap="round" stroke-linejoin="round"/>
<path d="M161.341 195.782L30.9513 192.213" stroke="black" stroke-width="3" stroke-linecap="round" stroke-linejoin="round"/>
</svg>
