<svg width="186" height="214" viewBox="0 0 186 214" fill="none" xmlns="http://www.w3.org/2000/svg">
<path d="M44.278 6.65247L58.1056 11.4922L97.1688 17.0232L124.824 11.4922C146.672 0.153466 164.809 10.4551 171.147 17.0232C207.375 184.338 168.727 217.179 144.874 212.685C103.852 212.569 19.319 210.541 9.36313 203.351C-0.592788 196.161 2.4493 151.497 5.21483 130.064L9.36313 104.829L6.5976 88.9271L12.1287 51.9381L32.1788 11.4922L44.278 6.65247Z" fill="#E1CEF1"/>
<path d="M159.739 7.34384C150.889 4.0252 144.528 5.96108 142.454 7.34384C133.812 12.5292 111.687 32.104 111.688 69.914C111.688 96.5323 128.972 109.717 136.577 116.928V93.0754C136.577 86.8529 124.478 81.6675 136.577 45.3699C146.257 16.3318 164.117 15.0643 171.838 18.0603C171.492 15.8709 168.588 10.6625 159.739 7.34384Z" fill="#938364"/>
<path d="M124.478 11.4921C125.515 9.64846 130.562 6.23763 142.454 7.34384M142.454 7.34384C144.528 5.96108 150.889 4.0252 159.739 7.34384C168.588 10.6625 171.492 15.8709 171.838 18.0603C164.117 15.0643 146.257 16.3318 136.577 45.3699C124.478 81.6675 136.577 86.8529 136.577 93.0754V116.928C128.972 109.717 111.688 96.5323 111.688 69.914C111.687 32.104 133.812 12.5292 142.454 7.34384Z" stroke="black" stroke-width="3" stroke-linejoin="round"/>
<path d="M9.01743 105.52C7.35811 48.5503 36.3272 16.4471 46.698 6.65247C46.698 0.568293 38.1709 1.1214 33.9074 2.15848C-2.59768 40.5994 -0.777173 86.5072 9.01743 105.52Z" fill="#938364" stroke="black" stroke-width="3" stroke-linejoin="round"/>
<path d="M47.0435 5.96108L51.8831 9.418" stroke="black" stroke-width="3" stroke-linecap="round" stroke-linejoin="round"/>
<path d="M8.70989 105.866C3.98544 134.097 -2.62879 192.98 8.70989 202.66" stroke="black" stroke-width="3" stroke-linecap="round" stroke-linejoin="round"/>
</svg>
