<svg width="156" height="105" viewBox="0 0 156 105" fill="none" xmlns="http://www.w3.org/2000/svg">
<path d="M16.5193 6.01425C12.9241 6.2908 9.95117 15.5784 8.9141 20.1876C1.84613 31.1194 -4.85189 50.9916 13.0624 57.8689C7.30084 67.7784 -1.3184 89.2568 10.2968 95.8941C21.9121 102.531 37.0303 102.074 43.1375 101.015C50.5954 101.169 59.5131 100.157 64.5704 99.351C74.2498 103.499 126.795 104.191 137.166 102.808C147.536 101.425 150.302 95.8941 153.759 75.4983C157.216 55.1025 143.734 37.8179 121.264 36.0894C103.288 34.7067 91.1887 41.9662 87.3861 45.7688C91.2578 32.7708 84.3901 19.8419 80.4723 15.0022C80.0113 10.8539 78.0524 2.4882 73.9041 2.21164C69.7558 1.93509 65.9532 9.01024 64.5704 12.5824C44.1055 8.9872 30.9231 12.6976 26.8901 15.0022C24.9311 11.891 20.1145 5.73769 16.5193 6.01425Z" fill="#E6CD8F"/>
<path d="M50.0514 84.4862C44.9013 84.1772 40.5799 85.0345 37.2608 86.491M28.9642 60.2878C22.2639 60.2878 17.0526 59.4007 13.0624 57.8689M13.0624 57.8689C-4.85189 50.9916 1.84613 31.1194 8.9141 20.1876C9.95117 15.5784 12.9241 6.2908 16.5193 6.01425C20.1145 5.73769 24.9311 11.891 26.8901 15.0022C30.9231 12.6976 44.1055 8.9872 64.5704 12.5824C65.9532 9.01024 69.7558 1.93509 73.9041 2.21164C78.0524 2.4882 80.0113 10.8539 80.4723 15.0022C84.3901 19.8419 91.2578 32.7708 87.3861 45.7688C91.1887 41.9662 103.288 34.7067 121.264 36.0894C143.734 37.8179 157.216 55.1025 153.759 75.4983C150.302 95.8941 147.536 101.425 137.166 102.808C126.795 104.191 74.2498 103.499 64.5704 99.351C59.5131 100.157 50.5954 101.169 43.1375 101.015M13.0624 57.8689C7.30084 67.7784 -1.31841 89.2568 10.2968 95.8941C21.9121 102.531 37.0303 102.074 43.1375 101.015M43.1375 101.015C38.8707 100.927 35.0816 100.458 32.7668 99.351C27.185 96.6814 29.4405 89.9227 37.2608 86.491M37.2608 86.491C36.1085 85.5923 32.0754 83.7257 25.1616 83.4492" stroke="black" stroke-width="3" stroke-linecap="round" stroke-linejoin="round"/>
<path d="M33.4582 37.8179L43.8289 32.2868L54.1997 37.8179" stroke="black" stroke-width="3" stroke-linecap="round" stroke-linejoin="round"/>
<path d="M13.7538 32.9782L24.4702 35.398" stroke="black" stroke-width="3" stroke-linecap="round" stroke-linejoin="round"/>
<path d="M76.4668 30.2127L65.7504 32.6325" stroke="black" stroke-width="3" stroke-linecap="round" stroke-linejoin="round"/>
<path d="M13.7538 41.7352L24.6131 40.0703" stroke="black" stroke-width="3" stroke-linecap="round" stroke-linejoin="round"/>
<path d="M76.4668 38.9697L65.6075 37.3047" stroke="black" stroke-width="3" stroke-linecap="round" stroke-linejoin="round"/>
</svg>
