<svg width="79" height="51" viewBox="0 0 79 51" fill="none" xmlns="http://www.w3.org/2000/svg">
<path d="M45.1794 28.9313C57.0712 30.3141 63.5011 17.2931 65.2295 10.6097L76.6374 22.3632C74.5632 34.1167 59.0071 50.7099 38.957 48.9815C18.9069 47.253 7.49903 32.3883 3.69642 22.3632C-0.106184 12.3381 4.7335 3.35017 11.6473 2.31309C18.5612 1.27602 23.4008 5.77001 24.7836 12.6838C26.1664 19.5977 30.3147 27.2029 45.1794 28.9313Z" fill="#E6CD8F"/>
<path d="M65.2295 10.6097C63.5011 17.2931 57.0712 30.3141 45.1794 28.9313C30.3147 27.2029 26.1664 19.5977 24.7836 12.6838C23.4008 5.77001 18.5612 1.27602 11.6473 2.31309C4.7335 3.35017 -0.106184 12.3381 3.69642 22.3632C7.49903 32.3883 18.9069 47.253 38.957 48.9815C59.0071 50.7099 74.9563 32.2398 77.0304 20.4862" stroke="black" stroke-width="3" stroke-linecap="round" stroke-linejoin="round"/>
</svg>
