<svg width="85" height="54" viewBox="0 0 85 54" fill="none" xmlns="http://www.w3.org/2000/svg">
<path fill-rule="evenodd" clip-rule="evenodd" d="M57.6313 52.125C71.5924 52.125 82.91 40.8074 82.91 26.8463C82.91 12.8853 71.5924 1.56763 57.6313 1.56763C46.4052 1.56763 36.8882 8.88544 33.5904 19.0111C30.2393 16.023 25.8203 14.207 20.9772 14.207C10.5064 14.207 2.01819 22.6952 2.01819 33.166C2.01819 43.2121 9.8318 51.4332 19.7133 52.0836V52.125H20.9772H57.6313Z" fill="#7DC9B5"/>
<path d="M33.5904 19.0111L32.5921 20.1307C32.9701 20.4678 33.4926 20.5913 33.9816 20.4592C34.4705 20.3271 34.8598 19.9572 35.0166 19.4757L33.5904 19.0111ZM19.7133 52.0836H21.2133C21.2133 51.2934 20.6003 50.6387 19.8118 50.5868L19.7133 52.0836ZM19.7133 52.125H18.2133C18.2133 52.9535 18.8849 53.625 19.7133 53.625V52.125ZM81.41 26.8463C81.41 39.9789 70.7639 50.625 57.6313 50.625V53.625C72.4208 53.625 84.41 41.6358 84.41 26.8463H81.41ZM57.6313 3.06763C70.7639 3.06763 81.41 13.7137 81.41 26.8463H84.41C84.41 12.0569 72.4208 0.067627 57.6313 0.067627V3.06763ZM35.0166 19.4757C38.1193 9.94925 47.0736 3.06763 57.6313 3.06763V0.067627C45.7368 0.067627 35.6572 7.82164 32.1641 18.5466L35.0166 19.4757ZM20.9772 15.707C25.4381 15.707 29.5052 17.378 32.5921 20.1307L34.5887 17.8916C30.9735 14.6679 26.2025 12.707 20.9772 12.707V15.707ZM3.51819 33.166C3.51819 23.5236 11.3349 15.707 20.9772 15.707V12.707C9.67801 12.707 0.518188 21.8668 0.518188 33.166H3.51819ZM19.8118 50.5868C10.7136 49.988 3.51819 42.4166 3.51819 33.166H0.518188C0.518188 44.0075 8.95004 52.8784 19.6148 53.5803L19.8118 50.5868ZM21.2133 52.125V52.0836H18.2133V52.125H21.2133ZM20.9772 50.625H19.7133V53.625H20.9772V50.625ZM57.6313 50.625H20.9772V53.625H57.6313V50.625Z" fill="black"/>
</svg>
