<svg width="261" height="146" viewBox="0 0 261 146" fill="none" xmlns="http://www.w3.org/2000/svg">
<path fill-rule="evenodd" clip-rule="evenodd" d="M190.775 69.6406C188.849 32.2234 157.9 2.47736 120.003 2.47736C86.0883 2.47736 57.7377 26.3015 50.7743 58.1272C48.9923 57.9033 47.1766 57.788 45.334 57.788C21.469 57.788 2.12256 77.1344 2.12256 100.999C2.12256 124.864 21.469 144.211 45.334 144.211C45.4046 144.211 45.4752 144.211 45.5458 144.21C45.5904 144.211 45.635 144.211 45.6797 144.211H120.003H242.033C251.579 144.211 259.317 136.472 259.317 126.926C259.317 117.38 251.579 109.642 242.033 109.642H223.546C224.329 106.896 224.748 103.997 224.748 100.999C224.748 83.6257 210.664 69.5415 193.29 69.5415C192.443 69.5415 191.605 69.575 190.775 69.6406Z" fill="#7DC9B5"/>
<path d="M190.775 69.6406L189.277 69.7177C189.298 70.1222 189.481 70.501 189.786 70.7681C190.09 71.0352 190.49 71.1679 190.893 71.1359L190.775 69.6406ZM50.7743 58.1272L50.5873 59.6155C51.3572 59.7122 52.0738 59.2058 52.2396 58.4478L50.7743 58.1272ZM45.5458 144.21L45.5571 142.71C45.5509 142.71 45.5448 142.71 45.5386 142.71L45.5458 144.21ZM223.546 109.642L222.103 109.23C221.974 109.683 222.065 110.17 222.349 110.545C222.632 110.921 223.075 111.142 223.546 111.142V109.642ZM192.273 69.5635C190.306 31.353 158.702 0.977356 120.003 0.977356V3.97736C157.097 3.97736 187.391 33.0938 189.277 69.7177L192.273 69.5635ZM120.003 0.977356C85.3686 0.977356 56.4199 25.3069 49.3089 57.8066L52.2396 58.4478C59.0556 27.2962 86.8081 3.97736 120.003 3.97736V0.977356ZM50.9612 56.6389C49.1174 56.4073 47.2393 56.288 45.334 56.288V59.288C47.114 59.288 48.8673 59.3994 50.5873 59.6155L50.9612 56.6389ZM45.334 56.288C20.6406 56.288 0.622559 76.306 0.622559 100.999H3.62256C3.62256 77.9629 22.2974 59.288 45.334 59.288V56.288ZM0.622559 100.999C0.622559 125.693 20.6406 145.711 45.334 145.711V142.711C22.2974 142.711 3.62256 124.036 3.62256 100.999H0.622559ZM45.334 145.711C45.407 145.711 45.48 145.711 45.5529 145.71L45.5386 142.71C45.4705 142.711 45.4023 142.711 45.334 142.711V145.711ZM45.5345 145.71C45.5829 145.711 45.6313 145.711 45.6797 145.711V142.711C45.6388 142.711 45.5979 142.711 45.5571 142.71L45.5345 145.71ZM45.6797 145.711H120.003V142.711H45.6797V145.711ZM120.003 145.711H242.033V142.711H120.003V145.711ZM242.033 145.711C252.407 145.711 260.817 137.301 260.817 126.926H257.817C257.817 135.644 250.75 142.711 242.033 142.711V145.711ZM260.817 126.926C260.817 116.552 252.407 108.142 242.033 108.142V111.142C250.75 111.142 257.817 118.209 257.817 126.926H260.817ZM242.033 108.142H223.546V111.142H242.033V108.142ZM223.248 100.999C223.248 103.856 222.849 106.617 222.103 109.23L224.988 110.053C225.809 107.175 226.248 104.137 226.248 100.999H223.248ZM193.29 71.0415C209.835 71.0415 223.248 84.4542 223.248 100.999H226.248C226.248 82.7973 211.492 68.0415 193.29 68.0415V71.0415ZM190.893 71.1359C191.684 71.0734 192.483 71.0415 193.29 71.0415V68.0415C192.404 68.0415 191.526 68.0765 190.657 68.1453L190.893 71.1359Z" fill="black"/>
<path d="M121.732 4.20581L125.88 143.174" stroke="black" stroke-width="3" stroke-linecap="round" stroke-linejoin="round"/>
<path d="M38.0745 59.8622L74.0264 144.211" stroke="black" stroke-width="3" stroke-linecap="round" stroke-linejoin="round"/>
<path d="M199.167 71.27L181.191 143.52" stroke="black" stroke-width="3" stroke-linecap="round" stroke-linejoin="round"/>
</svg>
