<svg width="131" height="190" viewBox="0 0 131 190" fill="none" xmlns="http://www.w3.org/2000/svg">
<path fill-rule="evenodd" clip-rule="evenodd" d="M13.4934 55.9077C6.5095 39.3717 14.253 20.305 30.7891 13.3211C47.3251 6.33714 66.3918 14.0807 73.3757 30.6167C73.3808 30.6287 73.3858 30.6407 73.3909 30.6527L128.786 161.813L68.9036 187.104L13.4934 55.9077Z" fill="#89CE90"/>
<path d="M13.4934 55.9077L14.8752 55.3241L14.8752 55.3241L13.4934 55.9077ZM73.3909 30.6527L72.0084 31.2346L72.0091 31.2363L73.3909 30.6527ZM128.786 161.813L129.37 163.195L130.751 162.612L130.168 161.23L128.786 161.813ZM68.9036 187.104L67.5218 187.688L68.1054 189.07L69.4872 188.486L68.9036 187.104ZM14.8752 55.3241C8.21363 39.5512 15.5998 21.3645 31.3727 14.7029L30.2055 11.9392C12.9063 19.2455 4.80538 39.1921 12.1116 56.4913L14.8752 55.3241ZM31.3727 14.7029C47.1456 8.04127 65.3323 15.4274 71.9939 31.2003L74.7575 30.0331C67.4513 12.7339 47.5047 4.63302 30.2055 11.9392L31.3727 14.7029ZM71.9939 31.2003C71.9987 31.2118 72.0036 31.2232 72.0084 31.2346L74.7734 30.0707C74.7681 30.0582 74.7628 30.0456 74.7575 30.0331L71.9939 31.2003ZM72.0091 31.2363L127.404 162.397L130.168 161.23L74.7727 30.0691L72.0091 31.2363ZM128.202 160.432L68.32 185.723L69.4872 188.486L129.37 163.195L128.202 160.432ZM70.2854 186.521L14.8752 55.3241L12.1116 56.4913L67.5218 187.688L70.2854 186.521Z" fill="black"/>
<path d="M98.8448 174.459L30.7891 13.3211" stroke="black" stroke-width="3" stroke-linecap="round" stroke-linejoin="round"/>
</svg>
