<svg width="223" height="223" viewBox="0 0 223 223" fill="none" xmlns="http://www.w3.org/2000/svg">
<mask id="path-1-inside-1_47_1000" fill="white">
<path fill-rule="evenodd" clip-rule="evenodd" d="M111.565 0.829712C127.231 0.829712 139.93 13.5289 139.93 29.1942L139.93 29.1942V193.708C139.93 209.373 127.231 222.072 111.565 222.072C95.9002 222.072 83.201 209.373 83.201 193.708V29.2396L83.2009 29.1942C83.2009 13.5289 95.9001 0.829712 111.565 0.829712Z"/>
</mask>
<path fill-rule="evenodd" clip-rule="evenodd" d="M111.565 0.829712C127.231 0.829712 139.93 13.5289 139.93 29.1942L139.93 29.1942V193.708C139.93 209.373 127.231 222.072 111.565 222.072C95.9002 222.072 83.201 209.373 83.201 193.708V29.2396L83.2009 29.1942C83.2009 13.5289 95.9001 0.829712 111.565 0.829712Z" fill="#C42340"/>
<path d="M139.93 29.1942H136.93V30.7997L138.266 31.6903L139.93 29.1942ZM139.93 29.1942H142.93V27.5886L141.594 26.698L139.93 29.1942ZM83.201 29.2396L86.201 29.2396L86.201 29.2372L83.201 29.2396ZM83.2009 29.1942L80.2009 29.1942L80.2009 29.1965L83.2009 29.1942ZM142.93 29.1942C142.93 11.872 128.887 -2.17029 111.565 -2.17029V3.82971C125.574 3.82971 136.93 15.1858 136.93 29.1942H142.93ZM141.594 26.698L141.594 26.698L138.266 31.6903L138.266 31.6903L141.594 26.698ZM142.93 193.708V29.1942H136.93V193.708H142.93ZM136.93 193.708C136.93 207.716 125.574 219.072 111.565 219.072V225.072C128.888 225.072 142.93 211.03 142.93 193.708H136.93ZM111.565 219.072C97.557 219.072 86.201 207.716 86.201 193.708H80.201C80.201 211.03 94.2433 225.072 111.565 225.072V219.072ZM80.201 29.2396V193.708H86.201V29.2396H80.201ZM80.2009 29.1965L80.201 29.2419L86.201 29.2372L86.2009 29.1918L80.2009 29.1965ZM111.565 -2.17029C94.2433 -2.17029 80.2009 11.872 80.2009 29.1942H86.2009C86.2009 15.1858 97.557 3.82971 111.565 3.82971V-2.17029Z" fill="black" mask="url(#path-1-inside-1_47_1000)"/>
<path d="M111.565 3.26097V218.831" stroke="black" stroke-width="3" stroke-linecap="round" stroke-linejoin="round"/>
<mask id="path-4-inside-2_47_1000" fill="white">
<path fill-rule="evenodd" clip-rule="evenodd" d="M29.3295 139.815L193.822 139.815L193.822 139.815C209.487 139.815 222.187 127.116 222.187 111.451C222.187 95.7858 209.487 83.0866 193.822 83.0866L193.822 83.0866L193.807 83.0866L29.3085 83.0866C13.6432 83.0866 0.94403 95.7858 0.94403 111.451C0.944029 127.116 13.6432 139.815 29.3085 139.815C29.3155 139.815 29.3225 139.815 29.3295 139.815Z"/>
</mask>
<path fill-rule="evenodd" clip-rule="evenodd" d="M29.3295 139.815L193.822 139.815L193.822 139.815C209.487 139.815 222.187 127.116 222.187 111.451C222.187 95.7858 209.487 83.0866 193.822 83.0866L193.822 83.0866L193.807 83.0866L29.3085 83.0866C13.6432 83.0866 0.94403 95.7858 0.94403 111.451C0.944029 127.116 13.6432 139.815 29.3085 139.815C29.3155 139.815 29.3225 139.815 29.3295 139.815Z" fill="#C42340"/>
<path d="M193.822 139.815L194.194 136.839L194.009 136.815L193.822 136.815L193.822 139.815ZM29.3295 139.815L29.3295 142.815H29.3295L29.3295 139.815ZM193.822 139.815L193.45 142.792L193.635 142.815L193.822 142.815L193.822 139.815ZM193.822 83.0866L193.418 86.0592L193.619 86.0866L193.822 86.0866L193.822 83.0866ZM193.822 83.0866L194.227 80.114L194.025 80.0865L193.821 80.0866L193.822 83.0866ZM193.807 83.0866L193.807 86.0866L193.807 86.0866L193.807 83.0866ZM29.3085 83.0866L29.3085 80.0866L29.3085 80.0866L29.3085 83.0866ZM193.822 136.815L29.3295 136.815L29.3295 142.815L193.822 142.815L193.822 136.815ZM194.194 136.839L194.194 136.839L193.45 142.792L193.45 142.792L194.194 136.839ZM219.187 111.451C219.187 125.459 207.831 136.815 193.822 136.815L193.822 142.815C211.144 142.815 225.187 128.773 225.187 111.451L219.187 111.451ZM193.822 86.0866C207.831 86.0866 219.187 97.4426 219.187 111.451L225.187 111.451C225.187 94.1289 211.144 80.0866 193.822 80.0866L193.822 86.0866ZM193.418 86.0592L193.418 86.0592L194.227 80.114L194.227 80.114L193.418 86.0592ZM193.807 86.0866L193.823 86.0866L193.821 80.0866L193.806 80.0866L193.807 86.0866ZM29.3085 86.0866L193.807 86.0866L193.807 80.0866L29.3085 80.0866L29.3085 86.0866ZM3.94403 111.451C3.94403 97.4426 15.3001 86.0866 29.3085 86.0866L29.3085 80.0866C11.9864 80.0866 -2.05597 94.1289 -2.05597 111.451L3.94403 111.451ZM29.3085 136.815C15.3001 136.815 3.94403 125.459 3.94403 111.451L-2.05597 111.451C-2.05597 128.773 11.9864 142.815 29.3085 142.815L29.3085 136.815ZM29.3295 136.815C29.325 136.815 29.3207 136.815 29.3174 136.815C29.3137 136.815 29.311 136.815 29.3085 136.815L29.3085 142.815C29.3129 142.815 29.3172 142.815 29.3206 142.815C29.3243 142.815 29.3269 142.815 29.3295 142.815L29.3295 136.815Z" fill="black" mask="url(#path-4-inside-2_47_1000)"/>
<path d="M219.755 111.451L4.18561 111.451" stroke="black" stroke-width="3" stroke-linecap="round" stroke-linejoin="round"/>
<mask id="path-7-inside-3_47_1000" fill="white">
<path fill-rule="evenodd" clip-rule="evenodd" d="M149.673 189.672L149.673 189.672L149.673 189.672L33.3442 73.3433C22.2672 62.2663 22.2672 44.307 33.3443 33.23C44.4213 22.153 62.3806 22.153 73.4576 33.23C73.4686 33.2409 73.4795 33.2519 73.4905 33.2629L189.744 149.516L189.786 149.559C200.863 160.636 200.863 178.595 189.786 189.672C178.709 200.749 160.75 200.749 149.673 189.672Z"/>
</mask>
<path fill-rule="evenodd" clip-rule="evenodd" d="M149.673 189.672L149.673 189.672L149.673 189.672L33.3442 73.3433C22.2672 62.2663 22.2672 44.307 33.3443 33.23C44.4213 22.153 62.3806 22.153 73.4576 33.23C73.4686 33.2409 73.4795 33.2519 73.4905 33.2629L189.744 149.516L189.786 149.559C200.863 160.636 200.863 178.595 189.786 189.672C178.709 200.749 160.75 200.749 149.673 189.672Z" fill="#C42340"/>
<path d="M149.673 189.672L151.794 187.551L149.673 185.429L147.552 187.551L149.673 189.672ZM149.673 189.672L147.552 191.793L149.673 193.915L151.794 191.793L149.673 189.672ZM33.3442 73.3433L31.2229 75.4646L31.2229 75.4646L33.3442 73.3433ZM73.4905 33.2629L71.3658 35.3808L71.3692 35.3842L73.4905 33.2629ZM189.744 149.516L187.622 151.637L187.624 151.639L189.744 149.516ZM189.786 149.559L191.908 147.437L191.906 147.435L189.786 149.559ZM147.552 191.793L147.552 191.793L151.794 187.551L151.794 187.551L147.552 191.793ZM151.794 191.793L151.794 191.793L147.552 187.551L147.552 187.551L151.794 191.793ZM31.2229 75.4646L147.552 191.793L151.794 187.551L35.4655 71.222L31.2229 75.4646ZM35.4655 71.222C25.5601 61.3166 25.5601 45.2567 35.4656 35.3513L31.2229 31.1086C18.9744 43.3572 18.9744 63.2161 31.2229 75.4646L35.4655 71.222ZM35.4656 35.3513C45.371 25.4458 61.4309 25.4458 71.3363 35.3513L75.5789 31.1086C63.3304 18.8601 43.4715 18.8601 31.2229 31.1086L35.4656 35.3513ZM71.3363 35.3513C71.3461 35.3611 71.3559 35.3709 71.3658 35.3808L75.6152 31.1449C75.6031 31.1328 75.591 31.1207 75.5789 31.1086L71.3363 35.3513ZM191.865 147.395L75.6118 31.1415L71.3692 35.3842L187.622 151.637L191.865 147.395ZM191.906 147.435L191.863 147.392L187.624 151.639L187.667 151.682L191.906 147.435ZM191.908 191.793C204.156 179.545 204.156 159.686 191.908 147.437L187.665 151.68C197.571 161.585 197.571 177.645 187.665 187.551L191.908 191.793ZM147.552 191.793C159.8 204.042 179.659 204.042 191.908 191.793L187.665 187.551C177.76 197.456 161.7 197.456 151.794 187.551L147.552 191.793Z" fill="black" mask="url(#path-7-inside-3_47_1000)"/>
<path d="M188.067 187.953L35.6363 35.5221" stroke="black" stroke-width="3" stroke-linecap="round" stroke-linejoin="round"/>
<mask id="path-10-inside-4_47_1000" fill="white">
<path fill-rule="evenodd" clip-rule="evenodd" d="M149.634 33.2693L33.3738 149.529L33.3441 149.559C22.2671 160.636 22.2671 178.595 33.3441 189.672C44.4211 200.749 62.3804 200.749 73.4574 189.672L73.4575 189.672L73.4575 189.672L189.786 73.3433C200.863 62.2663 200.863 44.3069 189.786 33.2299C178.709 22.1529 160.75 22.1529 149.673 33.2299C149.66 33.243 149.647 33.2562 149.634 33.2693Z"/>
</mask>
<path fill-rule="evenodd" clip-rule="evenodd" d="M149.634 33.2693L33.3738 149.529L33.3441 149.559C22.2671 160.636 22.2671 178.595 33.3441 189.672C44.4211 200.749 62.3804 200.749 73.4574 189.672L73.4575 189.672L73.4575 189.672L189.786 73.3433C200.863 62.2663 200.863 44.3069 189.786 33.2299C178.709 22.1529 160.75 22.1529 149.673 33.2299C149.66 33.243 149.647 33.2562 149.634 33.2693Z" fill="#C42340"/>
<path d="M33.3738 149.529L35.4936 151.652L35.4951 151.65L33.3738 149.529ZM149.634 33.2693L151.755 35.3906L151.759 35.3867L149.634 33.2693ZM33.344 149.559L31.2243 147.436L31.2227 147.437L33.344 149.559ZM73.4574 189.672L75.5788 187.551L73.4574 185.429L71.3361 187.551L73.4574 189.672ZM73.4575 189.672L71.3361 191.793L73.4575 193.915L75.5788 191.793L73.4575 189.672ZM189.786 73.3433L191.908 75.4646L191.908 75.4646L189.786 73.3433ZM35.4951 151.65L151.755 35.3906L147.512 31.148L31.2525 147.408L35.4951 151.65ZM35.4638 151.682L35.4936 151.652L31.254 147.406L31.2243 147.436L35.4638 151.682ZM35.4654 187.551C25.5599 177.645 25.5599 161.585 35.4654 151.68L31.2227 147.437C18.9741 159.686 18.9741 179.545 31.2227 191.793L35.4654 187.551ZM71.3361 187.551C61.4307 197.456 45.3708 197.456 35.4654 187.551L31.2227 191.793C43.4713 204.042 63.3302 204.042 75.5787 191.793L71.3361 187.551ZM71.3361 187.551L71.3361 187.551L75.5787 191.793L75.5788 191.793L71.3361 187.551ZM75.5788 187.551L75.5788 187.551L71.3361 191.793L71.3361 191.793L75.5788 187.551ZM187.665 71.222L71.3361 187.551L75.5788 191.793L191.908 75.4646L187.665 71.222ZM187.665 35.3512C197.57 45.2566 197.57 61.3165 187.665 71.222L191.908 75.4646C204.156 63.216 204.156 43.3571 191.907 31.1086L187.665 35.3512ZM151.794 35.3512C161.7 25.4458 177.759 25.4458 187.665 35.3512L191.907 31.1086C179.659 18.86 159.8 18.86 147.551 31.1086L151.794 35.3512ZM151.759 35.3867C151.771 35.3747 151.782 35.3629 151.794 35.3512L147.551 31.1086C147.537 31.1231 147.523 31.1376 147.508 31.1519L151.759 35.3867Z" fill="black" mask="url(#path-10-inside-4_47_1000)"/>
<path d="M35.0632 187.953L187.494 35.5221" stroke="black" stroke-width="3" stroke-linecap="round" stroke-linejoin="round"/>
</svg>
