<svg width="171" height="225" viewBox="0 0 171 225" fill="none" xmlns="http://www.w3.org/2000/svg">
<path fill-rule="evenodd" clip-rule="evenodd" d="M153.063 103.657L74.7211 222.538L20.4432 186.769L98.8101 67.8505L98.8102 67.8506C108.688 52.8621 128.845 48.7188 143.834 58.5962C158.822 68.4736 162.965 88.6313 153.088 103.62C153.08 103.632 153.072 103.645 153.063 103.657Z" fill="#89CE90"/>
<path d="M153.063 103.657L151.812 102.83L151.811 102.832L153.063 103.657ZM74.7211 222.538L73.8957 223.79L75.1482 224.616L75.9736 223.363L74.7211 222.538ZM20.4432 186.769L19.1907 185.943L18.3653 187.196L19.6178 188.021L20.4432 186.769ZM98.8101 67.8505L99.4983 66.5177L98.2998 65.8989L97.5576 67.0252L98.8101 67.8505ZM98.8102 67.8506L98.122 69.1834L99.3204 69.8022L100.063 68.676L98.8102 67.8506ZM151.811 102.832L73.4686 221.712L75.9736 223.363L154.316 104.483L151.811 102.832ZM75.5465 221.285L21.2686 185.516L19.6178 188.021L73.8957 223.79L75.5465 221.285ZM21.6957 187.594L100.063 68.6759L97.5576 67.0252L19.1907 185.943L21.6957 187.594ZM98.1219 69.1834L98.122 69.1834L99.4984 66.5178L99.4983 66.5177L98.1219 69.1834ZM100.063 68.676C109.484 54.3792 128.712 50.4271 143.008 59.8487L144.659 57.3437C128.979 47.0105 107.891 51.345 97.5577 67.0252L100.063 68.676ZM143.008 59.8487C157.305 69.2702 161.257 88.4976 151.836 102.794L154.341 104.445C164.674 88.7649 160.339 67.6769 144.659 57.3437L143.008 59.8487ZM151.836 102.794C151.828 102.806 151.82 102.818 151.812 102.83L154.315 104.485C154.323 104.471 154.332 104.458 154.341 104.445L151.836 102.794Z" fill="black"/>
<path d="M47.5821 204.653L143.834 58.5961" stroke="black" stroke-width="3" stroke-linecap="round" stroke-linejoin="round"/>
<path d="M45.6786 176.914C99.3299 83.4391 47.7527 21.5833 15.2577 2.3398L1.77576 18.933C68.7017 69.2657 44.6415 137.62 24.2457 165.506L45.6786 176.914Z" fill="#89CE90" stroke="black" stroke-width="3" stroke-linecap="round" stroke-linejoin="round"/>
</svg>
