<svg width="185" height="164" viewBox="0 0 185 164" fill="none" xmlns="http://www.w3.org/2000/svg">
<path d="M159.082 113.715L51.4596 31.1011L53.6178 21.0165C59.2651 14.7832 76.8723 6.57883 84.9699 3.25578C99.8699 1.76136 114.833 8.01141 120.452 11.3232C137.141 14.7619 148.222 24.2022 151.676 28.4926C160.354 32.4164 168.976 50.9809 172.202 59.7727C175.939 65.2084 180.399 78.0025 182.162 83.7201C180.673 100.911 166.155 110.879 159.082 113.715Z" fill="#E49C59"/>
<path d="M3.38882 94.3115C5.99001 66.4897 39.6232 40.2675 56.1147 30.6341L59.5763 30.544C63.9622 34.9139 78.671 48.1721 102.419 66.2455C126.167 84.3188 151.624 93.5212 161.383 95.8632C153.774 149.516 125.901 156.614 120.436 159.588C116.064 161.967 99.1806 159.197 91.2853 157.515L69.5565 147.814L54.3458 122.368L103.229 97.3769L48.5713 60.2129L26.994 136.178C18.0417 133.815 0.78764 122.133 3.38882 94.3115Z" fill="#48116B"/>
<path d="M60.4466 150.517C-3.53491 136.967 24.6224 76.1784 46.6987 47.478C49.1622 57.0965 58.4667 56.7391 62.8111 55.358C63.8046 58.0986 66.7116 64.3859 70.3919 67.6098C74.0723 70.8338 83.7289 70.7208 88.0972 70.2613C87.9118 71.9951 87.7044 76.4269 88.3581 80.2829C89.0117 84.139 97.7233 85.8026 101.997 86.1525C117.53 85.0565 117.872 98.1884 112.541 105.935C108.276 112.132 98.6193 111.369 94.3242 110.213C58.6435 121.101 73.7621 143.946 85.7815 154.007C72.8023 154.898 63.4835 152.052 60.4466 150.517Z" fill="#FFFFFE"/>
<path d="M47.0264 46.7779C24.8558 76.2876 -3.50069 138.28 60.4376 150.171" stroke="black" stroke-width="3" stroke-linecap="round" stroke-linejoin="round"/>
<path d="M57.671 30.5936C39.0794 42.6045 2.07612 73.5377 2.79571 101.184C3.5153 128.83 22.0406 136.416 31.3861 136.749" stroke="black" stroke-width="3" stroke-linecap="round" stroke-linejoin="round"/>
<path d="M47.0354 47.1234C47.0191 50.9278 50.2242 58.0372 63.1747 56.0402C64.0127 61.6666 69.9614 72.324 87.0515 69.9427C86.2679 75.2655 87.6341 87.0105 103.371 85.7709" stroke="black" stroke-width="3" stroke-linecap="round" stroke-linejoin="round"/>
<path d="M98.25 88.3249C101.297 85.8249 108.757 82.7951 114.218 90.6757C121.045 100.526 105.971 119.247 93.5701 107.812" stroke="black" stroke-width="3" stroke-linecap="round" stroke-linejoin="round"/>
<path d="M94.6608 109.858C85.0207 111.493 67.4596 119.696 74.3363 139.435C82.9321 164.11 115.308 159.117 115.663 159.454C116.017 159.791 148.51 159.291 161.823 99.465" stroke="black" stroke-width="3" stroke-linecap="round" stroke-linejoin="round"/>
<path d="M56.9258 28.5381C76.1296 48.9021 124.467 91.1697 164.188 97.3286" stroke="black" stroke-width="3" stroke-linecap="round" stroke-linejoin="round"/>
<path d="M52.9139 33.8297C52.236 29.9282 52.0335 21.2652 56.647 17.8253C62.4138 13.5255 72.5742 5.30746 88.4346 3.5114C104.295 1.71533 116.624 10.3855 124.972 12.243C133.32 14.1006 158.525 25.8936 167.767 48.8223C177.009 71.7509 185.801 77.4008 179.95 91.7312C174.098 106.062 162.546 113.97 159.082 113.715" stroke="black" stroke-width="3" stroke-linecap="round" stroke-linejoin="round"/>
<path d="M58.8914 24.3373C62.6405 26.6603 70.6422 32.0542 72.6566 35.0449C75.1746 38.7832 91.5207 55.6482 99.5949 60.2793C107.669 64.9105 126.901 73.0551 135.338 78.3685C143.776 83.6818 166.355 87.5896 166.526 94.1555" stroke="black" stroke-width="3" stroke-linecap="round" stroke-linejoin="round"/>
<path d="M98.1519 18.1282L92.2708 24.6788M86.3896 31.2293L92.2708 24.6788M92.2708 24.6788L95.1819 36.8792M92.2708 24.6788L104.925 25.9056" stroke="black" stroke-width="3" stroke-linecap="round" stroke-linejoin="round"/>
<path d="M48.482 76.1337C46.081 76.8878 41.9334 79.6239 44.551 84.5354" stroke="black" stroke-width="3" stroke-linecap="round" stroke-linejoin="round"/>
</svg>
