<svg width="386" height="311" viewBox="0 0 386 311" fill="none" xmlns="http://www.w3.org/2000/svg">
<path d="M171.13 86.0624C187.723 90.7638 196.25 104.614 198.439 110.952V123.743L168.71 129.965L131.721 101.273C131.029 99.0834 130.684 93.5293 134.832 88.8279C140.017 82.9511 150.388 80.1856 171.13 86.0624Z" fill="white"/>
<path d="M206.044 126.163C203.625 117.866 195.259 99.1986 181.155 90.902C163.524 80.5313 144.511 79.4942 134.486 88.8279" stroke="black" stroke-width="3" stroke-linecap="round"/>
<path fill-rule="evenodd" clip-rule="evenodd" d="M116.142 28.7447C114.351 27.7979 112.326 27.3836 110.307 27.5506C99.8415 28.4163 96.8545 42.3297 106.042 47.4149L110.27 49.7547C107.045 52.3472 104.849 56.2808 104.709 60.9738L101.991 151.744L111.547 155.347C118.248 157.874 125.802 155.31 129.581 149.226L167.16 88.7225C171.675 81.4525 169.203 71.8842 161.731 67.7117L133.032 51.6861C133.66 50.8379 134.175 49.8789 134.545 48.8212C136.3 43.7985 134.12 38.2474 129.416 35.761L116.142 28.7447Z" fill="#555555"/>
<path d="M110.307 27.5506L110.183 26.0557L110.307 27.5506ZM116.142 28.7447L116.843 27.4186L116.843 27.4186L116.142 28.7447ZM106.042 47.4149L106.769 46.1025L106.769 46.1025L106.042 47.4149ZM110.27 49.7547L111.21 50.9238C111.599 50.6107 111.807 50.1241 111.765 49.6262C111.722 49.1282 111.434 48.6843 110.996 48.4423L110.27 49.7547ZM104.709 60.9738L103.21 60.9289L103.21 60.9289L104.709 60.9738ZM101.991 151.744L100.492 151.699C100.473 152.339 100.863 152.921 101.462 153.147L101.991 151.744ZM111.547 155.347L111.017 156.75L111.017 156.75L111.547 155.347ZM129.581 149.226L128.307 148.434L128.307 148.434L129.581 149.226ZM167.16 88.7225L168.434 89.5139L168.434 89.5139L167.16 88.7225ZM161.731 67.7117L162.462 66.4021L162.462 66.4021L161.731 67.7117ZM133.032 51.6861L131.827 50.7934C131.57 51.14 131.475 51.5802 131.566 52.0018C131.657 52.4234 131.924 52.7855 132.301 52.9958L133.032 51.6861ZM134.545 48.8212L133.129 48.3264L133.129 48.3264L134.545 48.8212ZM129.416 35.761L130.117 34.4349L130.117 34.4349L129.416 35.761ZM110.431 29.0455C112.165 28.9021 113.903 29.2579 115.441 30.0708L116.843 27.4186C114.799 26.338 112.488 25.8651 110.183 26.0557L110.431 29.0455ZM106.769 46.1025C98.8793 41.7359 101.444 29.7889 110.431 29.0455L110.183 26.0557C98.2388 27.0438 94.8296 42.9234 105.316 48.7273L106.769 46.1025ZM110.996 48.4423L106.769 46.1025L105.316 48.7273L109.544 51.0671L110.996 48.4423ZM106.208 61.0187C106.335 56.7888 108.307 53.2572 111.21 50.9238L109.33 48.5856C105.783 51.4372 103.364 55.7728 103.21 60.9289L106.208 61.0187ZM103.491 151.789L106.208 61.0187L103.21 60.9289L100.492 151.699L103.491 151.789ZM112.076 153.943L102.521 150.34L101.462 153.147L111.017 156.75L112.076 153.943ZM128.307 148.434C124.906 153.91 118.107 156.217 112.076 153.943L111.017 156.75C118.389 159.53 126.698 156.71 130.855 150.017L128.307 148.434ZM165.886 87.9311L128.307 148.434L130.855 150.017L168.434 89.5139L165.886 87.9311ZM161 69.0214C167.724 72.7766 169.95 81.3881 165.886 87.9311L168.434 89.5139C173.401 81.517 170.681 70.9918 162.462 66.4021L161 69.0214ZM132.301 52.9958L161 69.0214L162.462 66.4021L133.764 50.3765L132.301 52.9958ZM133.129 48.3264C132.809 49.2404 132.366 50.0654 131.827 50.7934L134.238 52.5788C134.955 51.6103 135.541 50.5174 135.961 49.316L133.129 48.3264ZM128.715 37.0872C132.763 39.2268 134.639 44.004 133.129 48.3264L135.961 49.316C137.96 43.593 135.477 37.2679 130.117 34.4349L128.715 37.0872ZM115.441 30.0708L128.715 37.0872L130.117 34.4349L116.843 27.4186L115.441 30.0708Z" fill="black"/>
<path d="M61.5454 2.40503C60.4392 2.68159 57.0514 5.97718 56.0143 7.9361L51.1746 14.1585L62.2368 17.2698L66.3851 14.1585C67.8831 12.7758 71.3976 8.62748 70.5334 7.24472C68.8049 4.47919 62.9281 2.05934 61.5454 2.40503Z" fill="#B01515" stroke="black" stroke-width="3"/>
<path fill-rule="evenodd" clip-rule="evenodd" d="M56.3713 8.51099C46.9361 3.18788 34.9779 6.34465 29.3994 15.6311L4.45835 57.1502C-0.818141 65.9339 1.39743 77.2846 9.58978 83.4393L91.9035 145.279C101.247 152.299 114.593 149.846 120.83 139.963L153.868 87.6108C159.969 77.9424 156.739 65.1358 146.781 59.5182L122.817 45.998C123.355 45.2237 123.8 44.3618 124.129 43.421C125.899 38.3554 123.62 32.7644 118.814 30.3788L87.006 14.5921C83.5744 12.889 79.4665 13.3309 76.4758 15.725C75.4702 16.53 74.6739 17.4752 74.0822 18.503L56.3713 8.51099Z" fill="#555555"/>
<path d="M29.3994 15.6311L30.6852 16.4035L30.6852 16.4035L29.3994 15.6311ZM56.3713 8.51099L55.6342 9.81742L55.6342 9.81742L56.3713 8.51099ZM4.45835 57.1502L3.17251 56.3778L3.17251 56.3778L4.45835 57.1502ZM9.58978 83.4393L10.4908 82.24L10.4908 82.24L9.58978 83.4393ZM91.9035 145.279L91.0026 146.479L91.0026 146.479L91.9035 145.279ZM120.83 139.963L122.099 140.763L122.099 140.763L120.83 139.963ZM153.868 87.6108L155.136 88.4113L155.136 88.4113L153.868 87.6108ZM146.781 59.5182L146.044 60.8246L146.044 60.8246L146.781 59.5182ZM122.817 45.998L121.585 45.1419C121.344 45.4886 121.261 45.9209 121.355 46.3325C121.449 46.7441 121.712 47.0969 122.08 47.3044L122.817 45.998ZM124.129 43.421L125.545 43.9158L125.545 43.9158L124.129 43.421ZM118.814 30.3788L119.48 29.0352L119.48 29.0352L118.814 30.3788ZM87.006 14.5921L86.3391 15.9357L86.3391 15.9357L87.006 14.5921ZM76.4758 15.725L77.4132 16.896L77.4132 16.896L76.4758 15.725ZM74.0822 18.503L73.3451 19.8095C74.0622 20.214 74.9713 19.965 75.3821 19.2515L74.0822 18.503ZM30.6852 16.4035C35.8454 7.81356 46.9067 4.89354 55.6342 9.81742L57.1083 7.20456C46.9655 1.48222 34.1105 4.87575 28.1136 14.8587L30.6852 16.4035ZM5.74418 57.9226L30.6852 16.4035L28.1136 14.8587L3.17251 56.3778L5.74418 57.9226ZM10.4908 82.24C2.91284 76.547 0.86343 66.0475 5.74418 57.9226L3.17251 56.3778C-2.49971 65.8202 -0.117971 78.0223 8.6888 84.6386L10.4908 82.24ZM92.8045 144.08L10.4908 82.24L8.6888 84.6386L91.0026 146.479L92.8045 144.08ZM119.562 139.162C113.793 148.304 101.447 150.573 92.8045 144.08L91.0026 146.479C101.047 154.025 115.394 151.388 122.099 140.763L119.562 139.162ZM152.599 86.8103L119.562 139.162L122.099 140.763L155.136 88.4113L152.599 86.8103ZM146.044 60.8246C155.255 66.0209 158.243 77.867 152.599 86.8103L155.136 88.4113C161.695 78.0178 158.222 64.2507 147.518 58.2118L146.044 60.8246ZM122.08 47.3044L146.044 60.8246L147.518 58.2118L123.554 44.6916L122.08 47.3044ZM122.713 42.9262C122.429 43.738 122.046 44.4784 121.585 45.1419L124.049 46.8541C124.664 45.969 125.171 44.9857 125.545 43.9158L122.713 42.9262ZM118.147 31.7224C122.276 33.7717 124.233 38.5746 122.713 42.9262L125.545 43.9158C127.564 38.1361 124.965 31.757 119.48 29.0352L118.147 31.7224ZM86.3391 15.9357L118.147 31.7224L119.48 29.0352L87.6728 13.2485L86.3391 15.9357ZM77.4132 16.896C79.9483 14.8667 83.4303 14.4921 86.3391 15.9357L87.6728 13.2485C83.7185 11.2859 78.9848 11.7952 75.5384 14.554L77.4132 16.896ZM75.3821 19.2515C75.8812 18.3847 76.5548 17.5831 77.4132 16.896L75.5384 14.554C74.3855 15.4768 73.4667 16.5657 72.7822 17.7546L75.3821 19.2515ZM55.6342 9.81742L73.3451 19.8095L74.8192 17.1966L57.1083 7.20456L55.6342 9.81742Z" fill="black"/>
<path fill-rule="evenodd" clip-rule="evenodd" d="M88.4624 47.5138L63.8782 30.2997L32.9464 74.4748L56.2847 90.8165C56.6454 91.2114 57.0459 91.565 57.4866 91.8736C63.7423 96.2539 75.7379 89.9158 84.2794 77.7172C92.821 65.5186 94.6741 52.0787 88.4184 47.6984C88.3993 47.6851 88.3801 47.6718 88.361 47.6586L88.4624 47.5138Z" fill="#555555"/>
<path d="M63.8782 30.2997L64.7385 29.071L63.5098 28.2106L62.6494 29.4393L63.8782 30.2997ZM88.4624 47.5138L89.6911 48.3741L90.5515 47.1454L89.3228 46.285L88.4624 47.5138ZM32.9464 74.4748L31.7177 73.6145L30.8573 74.8432L32.086 75.7036L32.9464 74.4748ZM56.2847 90.8165L57.3923 89.8049L57.2806 89.6827L57.1451 89.5878L56.2847 90.8165ZM57.4866 91.8736L56.6262 93.1023L56.6262 93.1023L57.4866 91.8736ZM84.2794 77.7172L83.0507 76.8568L83.0507 76.8568L84.2794 77.7172ZM88.4184 47.6984L89.2787 46.4697L89.2787 46.4697L88.4184 47.6984ZM88.361 47.6586L87.1322 46.7983L86.2635 48.0389L87.5125 48.8956L88.361 47.6586ZM63.0178 31.5284L87.602 48.7425L89.3228 46.285L64.7385 29.071L63.0178 31.5284ZM34.1751 75.3352L65.1069 31.1601L62.6494 29.4393L31.7177 73.6145L34.1751 75.3352ZM57.1451 89.5878L33.8068 73.2461L32.086 75.7036L55.4244 92.0453L57.1451 89.5878ZM58.347 90.6448C57.9982 90.4006 57.6803 90.1202 57.3923 89.8049L55.1772 91.8282C55.6106 92.3026 56.0936 92.7294 56.6262 93.1023L58.347 90.6448ZM83.0507 76.8568C78.8876 82.8024 73.9228 87.257 69.3251 89.6862C64.6486 92.1571 60.775 92.345 58.347 90.6448L56.6262 93.1023C60.4539 95.7825 65.7059 94.9915 70.7266 92.3387C75.826 89.6444 81.1297 84.8307 85.5082 78.5776L83.0507 76.8568ZM87.558 48.9271C89.9861 50.6273 91.1344 54.3315 90.412 59.5711C89.7017 64.7223 87.2138 70.9113 83.0507 76.8568L85.5082 78.5776C89.8866 72.3245 92.5961 65.6942 93.3838 59.9808C94.1594 54.3557 93.1064 49.1498 89.2787 46.4697L87.558 48.9271ZM87.5125 48.8956C87.5276 48.906 87.5428 48.9165 87.5581 48.9272L89.2787 46.4697C89.2557 46.4536 89.2327 46.4376 89.2094 46.4216L87.5125 48.8956ZM87.2337 46.6534L87.1322 46.7983L89.5897 48.519L89.6911 48.3741L87.2337 46.6534Z" fill="black"/>
<ellipse cx="52.211" cy="55.2669" rx="13.8277" ry="26.9639" transform="rotate(35 52.211 55.2669)" fill="#555555" stroke="black" stroke-width="3"/>
<ellipse cx="46.68" cy="51.1186" rx="13.8277" ry="26.9639" transform="rotate(35 46.68 51.1186)" fill="#555555" stroke="black" stroke-width="3"/>
<path d="M141.054 56.3329L89.2007 142.756" stroke="black" stroke-width="3"/>
<path d="M84.4189 23.2038C85.4086 21.3707 87.6712 20.6489 89.5396 21.5704L108.644 30.9925C110.715 32.0134 111.597 34.4959 110.636 36.5945V36.5945C109.609 38.8364 106.901 39.7432 104.731 38.5717L85.9868 28.4515C84.1047 27.4354 83.4027 25.0859 84.4189 23.2038V23.2038Z" fill="white" fill-opacity="0.3"/>
<circle cx="105.794" cy="34.2087" r="2.76553" fill="#B01515"/>
<path fill-rule="evenodd" clip-rule="evenodd" d="M183.229 109.915H159.376H156.265L131.029 87.0994L124.116 78.4572C122.157 76.1525 116.303 72.373 108.559 75.6916C100.816 79.0103 101.876 86.7538 103.374 90.2107C100.263 88.9431 92.8651 87.7217 88.1636 92.9762C83.4622 98.2307 86.2047 106.458 88.1636 109.915C86.32 110.03 81.9412 111.505 79.1757 116.483C75.7188 122.706 81.9412 132.731 86.0895 137.916C90.2378 143.101 123.424 167.646 143.474 166.609H157.648L169.401 164.534L197.748 135.151L206.044 126.854L199.157 119.966C199.919 119.427 200.734 118.682 201.205 118.212C200.283 116.253 197.679 111.229 197.402 110.952C197.261 110.811 196.812 111.417 196.269 112.15C195.749 112.851 195.143 113.669 194.637 114.063C194.526 114.339 194.394 114.689 194.259 115.069L191.525 112.335L183.229 109.915Z" fill="white"/>
<path d="M157.648 109.915C149.927 104.615 131.721 89.1736 125.844 80.5313C119.967 71.889 109.136 74.1936 105.103 77.7658C103.259 79.6095 100.401 84.8179 103.72 90.9021C107.868 98.5073 125.498 116.483 138.289 121.323" stroke="black" stroke-width="3" stroke-linecap="round"/>
<path d="M103.374 90.2107C100.263 88.7127 92.6576 87.3069 87.1266 93.6676C80.2127 101.619 90.5835 125.817 120.659 139.99" stroke="black" stroke-width="3" stroke-linecap="round"/>
<path d="M87.1266 109.224C76.9863 114.409 67.4913 131.002 110.634 155.892C117.893 160.617 137.598 169.512 158.339 167.3" stroke="black" stroke-width="3" stroke-linecap="round"/>
<path d="M253.811 138.953C273.447 153.057 315.69 175.942 334.358 185.622L382.409 212.931V252.34C377.431 275.847 359.363 296.704 349.222 302.465C309.952 318.229 265.565 301.198 248.28 290.712C162.203 248.192 135.931 185.622 134.202 182.165C132.819 179.399 155.059 154.74 166.352 142.756C187.646 127.822 210.254 114.409 218.897 109.569C222.354 113.487 234.176 124.849 253.811 138.953Z" fill="#E1CEF1"/>
<path d="M327.79 182.165C307.97 172.601 258.513 144.899 219.242 110.606C199.192 119.018 154.252 145.107 134.894 182.165C141.347 199.564 166.628 241.9 216.131 272.044C278.01 309.725 304.282 314.91 344.383 305.231C354.293 301.198 376.048 287.255 383.792 263.748" stroke="black" stroke-width="3" stroke-linecap="round" stroke-linejoin="round"/>
</svg>
