<svg width="457" height="227" viewBox="0 0 457 227" fill="none" xmlns="http://www.w3.org/2000/svg">
<path d="M335.141 174.104V119.719H342.166V174.104H335.141ZM332.141 119.719V174.104H301.609V119.719H332.141ZM345.166 174.104V119.719H365.673V174.104H345.166Z" fill="#EBE5EA" stroke="black" stroke-width="3"/>
<path d="M367.619 184.436C362.991 183.601 354.014 180.245 355.134 173.507C359.243 167.763 364.912 154.043 354.716 145.117C341.97 133.961 328.407 147.357 325.22 147.324C322.033 147.291 306.88 136.784 307.792 132.069C308.703 127.354 320.315 114.087 327.504 100.625C331.227 93.6552 336.221 88.0165 340.278 84.2415C342.489 82.1838 344.422 80.6798 345.719 79.8158L455.23 175.671C454.11 177.185 452.515 178.958 450.513 180.731C443.542 186.905 431.628 193.07 417.602 188.217C415.501 187.49 413.53 186.77 411.678 186.062C407.827 184.591 404.487 183.177 401.555 181.882C397.588 180.129 394.365 178.594 391.63 177.429C386.911 175.419 383.642 174.512 380.499 175.495C373.539 177.673 371.816 173.868 367.619 184.436Z" fill="#C474BC"/>
<path d="M355.134 173.507C354.014 180.245 362.991 183.601 367.619 184.436C371.816 173.868 373.539 177.673 380.499 175.495M355.134 173.507C359.243 167.763 364.912 154.043 354.716 145.117C341.97 133.961 328.407 147.357 325.22 147.324C322.033 147.291 306.88 136.784 307.792 132.069C308.703 127.354 320.315 114.087 327.504 100.625M355.134 173.507C361.32 165.126 368.698 161.052 376.18 159.671M327.504 100.625C331.227 93.6552 336.221 88.0165 340.278 84.2415M327.504 100.625C334.777 106.838 352.529 116.649 365.356 106.193M380.499 175.495C383.642 174.512 386.911 175.419 391.63 177.429M380.499 175.495C377.905 173.018 373.41 166.385 376.18 159.671M411.678 186.062C413.53 186.77 415.501 187.49 417.602 188.217C431.628 193.07 443.542 186.905 450.513 180.731M411.678 186.062C410.943 182.878 410.02 175.149 412.207 169.712C409.521 167.681 405.976 165.501 401.893 163.65M411.678 186.062C407.827 184.591 404.487 183.177 401.555 181.882M401.555 181.882C400.267 177.405 398.531 167.491 401.893 163.65M401.555 181.882C397.588 180.129 394.365 178.594 391.63 177.429M401.893 163.65C398.069 161.917 393.773 160.471 389.268 159.704M391.63 177.429C389.255 174.559 385.457 166.997 389.268 159.704M389.268 159.704C385.017 158.98 380.581 158.859 376.18 159.671M450.513 180.731C452.515 178.958 454.11 177.185 455.23 175.671L345.719 79.8158C344.422 80.6798 342.489 82.1838 340.278 84.2415M450.513 180.731L365.356 106.193M340.278 84.2415L365.356 106.193" stroke="black" stroke-width="3" stroke-linecap="round" stroke-linejoin="round"/>
<path d="M388.606 48.7348C389.643 101.28 379.618 132.738 317.393 150.714V178.023C245.95 179.176 95.4592 180.789 65.0383 178.023C27.0123 174.567 1.77676 146.566 1.77676 80.8841C1.77676 15.2027 89.9281 2.41211 133.831 1.72073C168.953 1.16762 249.177 6.32995 284.898 8.98025C319.122 4.71672 387.776 6.69869 388.606 48.7348Z" fill="#404893"/>
<path d="M145.93 118.91C182.343 135.503 267.614 165.095 317.393 150.714M317.393 150.714C379.618 132.738 389.643 101.28 388.606 48.7348C387.776 6.69869 319.122 4.71672 284.898 8.98025C249.177 6.32995 168.953 1.16762 133.831 1.72073C89.9281 2.41211 1.77676 15.2027 1.77676 80.8841C1.77676 146.566 27.0123 174.567 65.0383 178.023C95.4592 180.789 245.95 179.176 317.393 178.023V150.714Z" stroke="black" stroke-width="3" stroke-linecap="round" stroke-linejoin="round"/>
</svg>
