<svg width="209" height="297" viewBox="0 0 209 297" fill="none" xmlns="http://www.w3.org/2000/svg">
<path d="M112.955 16.1765C118.143 15.6496 126.299 15.6944 126.299 15.6944C135.275 28.8213 154.793 60.6711 161.061 83.0554C168.896 111.036 155.649 171.211 152.169 194.89C148.69 218.568 134.748 256.542 109.706 273.817C84.6637 291.092 72.6972 278.145 64.8469 276.512C58.5668 275.206 36.849 254.938 26.7751 244.967L38.2212 155.25L58.7796 96.1534L57.9706 91.1138L60.0151 85.2368C60.0151 85.2368 69.4999 57 79.4999 41C85.9323 30.7082 91.0769 23.1004 102.5 19C107.276 17.2855 107.906 16.6892 112.955 16.1765Z" fill="#E1CEF1"/>
<path d="M73.4317 54.035C64.9274 74.6233 45.843 124.082 37.5397 157.209" stroke="black" stroke-width="3" stroke-linecap="round" stroke-linejoin="round"/>
<path d="M123.602 12.9261C139.079 30.5108 168.758 76.29 163.657 118.73C157.281 171.779 151.004 225.595 134.891 245.611C118.777 265.626 119.274 269.459 93.5364 281.368" stroke="black" stroke-width="3" stroke-linecap="round" stroke-linejoin="round"/>
</svg>
