<svg width="85" height="78" viewBox="0 0 85 78" fill="none" xmlns="http://www.w3.org/2000/svg">
<path d="M65.8852 10.0964C25.785 -12.581 11.6117 10.7878 9.53752 25.3068L12.9944 41.5543L6.42629 49.1596C2.27799 55.7277 -1.38634 69.9011 17.1427 74.0494C40.3041 79.2347 50.3291 65.7528 62.4283 56.7648C72.1077 49.5744 79.8281 35.7928 82.4784 29.8008L65.8852 31.875V10.0964Z" fill="white"/>
<path d="M8.84595 25.3068C8.84595 25.3068 12.6384 37.5269 15.0684 45.357" stroke="black" stroke-width="3" stroke-linecap="round" stroke-linejoin="round"/>
<path d="M13.3401 40.5173C5.96532 48.0073 -5.25814 64.854 8.84608 72.3209C14.4924 75.2017 29.4493 78.889 44.1066 70.5924C52.7489 65.9832 72.6607 51.4411 83.1698 30.1465" stroke="black" stroke-width="3" stroke-linecap="round" stroke-linejoin="round"/>
<path d="M66.4631 31.4629L65.7065 10.0964" stroke="black" stroke-width="3" stroke-linecap="round"/>
<path d="M83.1699 29.8008L66.5767 31.5293" stroke="black" stroke-width="3" stroke-linecap="round"/>
</svg>
