<svg width="108" height="99" viewBox="0 0 108 99" fill="none" xmlns="http://www.w3.org/2000/svg">
<path d="M88.293 31.8695C92.7437 31.2692 101.645 32.1576 101.645 40.5136C101.645 48.8695 94.9691 52.039 94.9691 52.039C97.9798 51.7989 104.316 52.3992 105.572 56.7212C107.143 62.1238 105.965 66.0856 99.6816 70.0475C93.3982 74.0094 49.0219 97.4205 38.8115 97.0603C28.601 96.7001 24.6739 88.7764 26.6374 83.0137C20.7468 81.2128 10.065 74.8738 14.4634 63.9246C9.09635 61.0433 -0.616678 53.0475 3.46751 44.1153C5.03835 33.6703 13.835 10.8355 36.4552 3.05584C41.4295 1.18438 51.6138 -0.283114 52.5563 8.81857C53.4216 17.1745 46.4092 22.5214 41.9117 24.6012C64.1557 15.3248 92.1635 8.91385 88.293 31.8695Z" fill="white"/>
<path d="M28.601 30.789C32.1996 28.9312 36.3586 26.9571 40.775 25.0798M88.293 31.8695C77.8207 33.1901 53.6559 38.1364 40.775 47.3568M88.293 31.8695C92.7437 31.2692 101.645 32.1576 101.645 40.5136C101.645 48.8695 94.9691 52.039 94.9691 52.039M88.293 31.8695C92.2298 8.52104 63.1878 15.5528 40.775 25.0798M94.9691 52.039C87.3767 53.4797 68.3433 58.5221 52.949 67.1662M94.9691 52.039C97.9798 51.7989 104.316 52.3992 105.572 56.7212C107.143 62.1238 105.965 66.0856 99.6816 70.0475C93.3982 74.0094 49.0219 97.4205 38.8115 97.0603C28.601 96.7001 24.6739 88.7764 26.6374 83.0137C20.7468 81.2128 10.065 74.8738 14.4634 63.9246C9.09635 61.0433 -0.616677 53.0475 3.46751 44.1153C5.03835 33.6703 13.835 10.8355 36.4552 3.05584C41.4295 1.18438 51.6138 -0.283114 52.5563 8.81857C53.4988 17.9202 45.0948 23.4517 40.775 25.0798" stroke="black" stroke-width="3" stroke-linecap="round"/>
</svg>
