<svg width="349" height="309" viewBox="0 0 349 309" fill="none" xmlns="http://www.w3.org/2000/svg">
<rect x="70.4601" y="211.31" width="64.0642" height="54.3848" fill="#EBE5EA" stroke="black" stroke-width="3"/>
<path d="M62.7376 242.305C66.7707 239.885 75.7356 236.497 79.3308 242.305C80.0222 249.334 84.7927 263.392 98.3439 263.392C115.283 263.392 116.666 244.379 119.085 242.305C121.505 240.231 139.827 238.157 142.247 242.305C144.667 246.453 144.667 264.084 148.123 278.948C149.913 286.645 149.869 294.177 149.303 299.69C148.994 302.695 148.53 305.1 148.123 306.604H2.58727C2.43303 304.727 2.4646 302.342 2.80327 299.69C3.98268 290.452 8.88652 277.966 22.6374 272.38C24.6968 271.544 26.6543 270.788 28.5142 270.1C32.3806 268.67 35.825 267.535 38.8849 266.578C43.0242 265.284 46.46 264.317 49.2853 263.392C54.1603 261.796 57.2176 260.326 58.935 257.515C62.7376 251.293 66.5402 253.021 62.7376 242.305Z" fill="#C474BC"/>
<path d="M79.3308 242.305C75.7356 236.497 66.7707 239.885 62.7376 242.305C66.5402 253.021 62.7376 251.293 58.935 257.515M79.3308 242.305C80.0222 249.334 84.7927 263.392 98.3439 263.392C115.283 263.392 116.666 244.379 119.085 242.305C121.505 240.231 139.827 238.157 142.247 242.305C144.667 246.453 144.667 264.084 148.123 278.948M79.3308 242.305C80.1959 252.686 77.3275 260.612 72.6068 266.578M148.123 278.948C149.913 286.645 149.869 294.177 149.303 299.69M148.123 278.948C138.559 279.064 118.74 283.373 115.974 299.69M58.935 257.515C57.2176 260.326 54.1603 261.796 49.2853 263.392M58.935 257.515C62.5185 257.671 70.2697 259.702 72.6068 266.578M28.5142 270.1C26.6543 270.788 24.6968 271.544 22.6374 272.38C8.88652 277.966 3.98268 290.452 2.80327 299.69M28.5142 270.1C31.1645 272.012 36.9491 277.22 38.8849 282.751C42.2439 282.511 46.3466 281.816 50.6384 280.519M28.5142 270.1C32.3806 268.67 35.825 267.535 38.8849 266.578M38.8849 266.578C42.8028 269.099 50.6384 275.415 50.6384 280.519M38.8849 266.578C43.0242 265.284 46.46 264.317 49.2853 263.392M50.6384 280.519C54.6576 279.305 58.8425 277.563 62.7376 275.174M49.2853 263.392C52.9628 263.987 60.8017 267.176 62.7376 275.174M62.7376 275.174C66.413 272.919 69.8303 270.087 72.6068 266.578M2.80327 299.69C2.4646 302.342 2.43303 304.727 2.58727 306.604H148.123C148.53 305.1 148.994 302.695 149.303 299.69M2.80327 299.69H115.974M149.303 299.69H115.974" stroke="black" stroke-width="3" stroke-linecap="round" stroke-linejoin="round"/>
<path d="M120.122 2.39504C72.2787 -0.923597 55.0172 42.0343 52.3669 63.9282L57.898 249.219H165.754L168.865 246.108L205.854 206.353L274.647 227.44C309.561 214.534 370.887 177.868 336.871 134.449C294.351 80.1757 179.927 6.54334 120.122 2.39504Z" fill="#404893"/>
<path d="M168.865 246.108L205.854 206.353L274.647 227.44C309.561 214.534 370.887 177.868 336.871 134.449C294.351 80.1757 179.927 6.54334 120.122 2.39504C72.2787 -0.923597 55.0172 42.0343 52.3669 63.9281L57.898 249.219H165.754L168.865 246.108ZM168.865 246.108C172.552 216.148 171.907 145.926 139.827 104.72" stroke="black" stroke-width="3" stroke-linecap="round" stroke-linejoin="round"/>
</svg>
