<svg width="378" height="390" viewBox="0 0 378 390" fill="none" xmlns="http://www.w3.org/2000/svg">
<path d="M75.9816 76.1496C53.4672 133.662 19.3537 292.633 2.85236 376.129C1.58387 382.548 6.75041 388.359 13.2804 387.951L366.27 365.942C372.133 365.576 376.429 360.317 375.517 354.514C363.475 277.901 336.881 130.396 314.281 76.1496C284.645 5.01374 230.816 0.445379 191.503 1.75062C152.189 3.05587 105.618 0.445381 75.9816 76.1496Z" fill="#BBE2DD" stroke="black" stroke-width="3" stroke-linecap="round" stroke-linejoin="round"/>
<path fill-rule="evenodd" clip-rule="evenodd" d="M76.4311 75.2135C77.9333 82.3578 87.5893 101.14 108.665 101.14C129.741 101.14 136.05 79.7075 136.05 79.7075C138.592 86.8518 148.46 101.14 167.595 101.14C186.73 101.14 195.673 79.7075 195.673 79.7075C198.331 86.8518 208.984 101.14 230.338 101.14C251.691 101.14 258.647 90.0782 259.456 84.5472C260.496 90.0782 268.538 101.14 292.387 101.14C316.236 101.14 318.963 90.0782 317.345 84.5472V83.9983C316.317 81.2043 315.295 78.5831 314.281 76.1496C284.645 5.01374 230.816 0.445379 191.503 1.75062C189.549 1.81547 187.578 1.87065 185.592 1.92625C147.787 2.98464 104.565 4.19468 76.3909 75.112L76.4311 75.2135Z" fill="#BBE3DC"/>
<path d="M76.4311 75.2135L77.899 74.9049C77.8815 74.8215 77.8569 74.7397 77.8255 74.6605L76.4311 75.2135ZM136.05 79.7075L137.463 79.2046C137.246 78.5924 136.658 78.19 136.009 78.2081C135.359 78.2261 134.795 78.6605 134.611 79.2839L136.05 79.7075ZM195.673 79.7075L197.079 79.1845C196.864 78.6072 196.318 78.2198 195.702 78.2078C195.087 78.1957 194.526 78.5614 194.289 79.1298L195.673 79.7075ZM259.456 84.5472L260.93 84.27C260.794 83.5496 260.158 83.0326 259.425 83.0475C258.692 83.0624 258.078 83.6048 257.971 84.3301L259.456 84.5472ZM317.345 84.5472H315.845C315.845 84.6897 315.866 84.8315 315.906 84.9682L317.345 84.5472ZM317.345 83.9983H318.845C318.845 83.8216 318.814 83.6462 318.753 83.4803L317.345 83.9983ZM314.281 76.1496L315.666 75.5727L314.281 76.1496ZM191.503 1.75062L191.552 3.2498L191.552 3.2498L191.503 1.75062ZM185.592 1.92625L185.55 0.426837L185.55 0.426837L185.592 1.92625ZM76.3909 75.112L74.9969 74.5582C74.8557 74.9136 74.8555 75.3095 74.9965 75.6649L76.3909 75.112ZM108.665 99.6404C98.624 99.6404 91.3167 95.182 86.3026 89.8305C81.2516 84.4396 78.5929 78.205 77.899 74.9049L74.9632 75.5221C75.7715 79.3663 78.6918 86.0952 84.1134 91.8816C89.5719 97.7075 97.6305 102.64 108.665 102.64V99.6404ZM136.05 79.7075C134.611 79.2839 134.611 79.2834 134.612 79.2829C134.612 79.2828 134.612 79.2824 134.612 79.2823C134.612 79.2821 134.612 79.2823 134.612 79.2827C134.611 79.2836 134.611 79.2857 134.61 79.2892C134.608 79.296 134.604 79.3078 134.599 79.3245C134.588 79.358 134.572 79.4108 134.549 79.4818C134.502 79.6238 134.429 79.8382 134.329 80.1146C134.127 80.6678 133.813 81.4675 133.371 82.4315C132.486 84.3632 131.097 86.9337 129.082 89.497C125.064 94.6088 118.614 99.6404 108.665 99.6404V102.64C119.793 102.64 127.035 96.9555 131.441 91.3509C133.637 88.556 135.142 85.7682 136.099 83.6813C136.578 82.6359 136.922 81.7612 137.147 81.1422C137.26 80.8326 137.344 80.5865 137.4 80.4146C137.428 80.3286 137.449 80.2611 137.464 80.2134C137.472 80.1896 137.477 80.1707 137.481 80.1569C137.484 80.15 137.485 80.1444 137.486 80.1401C137.487 80.1379 137.488 80.1361 137.488 80.1346C137.488 80.1338 137.489 80.1329 137.489 80.1326C137.489 80.1318 137.489 80.1311 136.05 79.7075ZM167.595 99.6404C149.316 99.6404 139.878 85.9905 137.463 79.2046L134.637 80.2103C137.307 87.713 147.604 102.64 167.595 102.64V99.6404ZM195.673 79.7075C194.289 79.1298 194.289 79.1294 194.289 79.1291C194.289 79.1291 194.289 79.1288 194.289 79.1288C194.289 79.1287 194.289 79.129 194.289 79.1296C194.288 79.1308 194.287 79.1333 194.286 79.1371C194.283 79.1445 194.277 79.1571 194.27 79.1745C194.255 79.2093 194.231 79.2636 194.199 79.336C194.134 79.4809 194.034 79.6985 193.9 79.9782C193.63 80.5379 193.222 81.3452 192.671 82.3174C191.569 84.2652 189.908 86.8576 187.674 89.4435C183.192 94.6329 176.551 99.6404 167.595 99.6404V102.64C177.774 102.64 185.171 96.9314 189.945 91.4044C192.339 88.632 194.11 85.8662 195.282 83.7953C195.869 82.7582 196.309 81.8911 196.603 81.2787C196.751 80.9723 196.862 80.7294 196.937 80.5604C196.975 80.4758 197.004 80.4098 197.024 80.3635C197.034 80.3403 197.042 80.3221 197.047 80.309C197.05 80.3024 197.052 80.2972 197.054 80.2932C197.055 80.2912 197.056 80.2895 197.056 80.2882C197.056 80.2875 197.057 80.2867 197.057 80.2864C197.057 80.2857 197.057 80.2851 195.673 79.7075ZM230.338 99.6404C209.751 99.6404 199.571 85.8847 197.079 79.1845L194.267 80.2305C197.09 87.8189 208.217 102.64 230.338 102.64V99.6404ZM257.971 84.3301C257.292 88.9761 251.107 99.6404 230.338 99.6404V102.64C252.275 102.64 260.002 91.1804 260.94 84.7642L257.971 84.3301ZM292.387 99.6404C268.988 99.6404 261.792 88.8552 260.93 84.27L257.982 84.8243C259.199 91.3013 268.088 102.64 292.387 102.64V99.6404ZM315.906 84.9682C316.583 87.2839 316.376 90.8406 313.356 93.8567C310.298 96.9117 304.126 99.6404 292.387 99.6404V102.64C304.497 102.64 311.613 99.838 315.476 95.9791C319.378 92.0814 319.725 87.3415 318.785 84.1261L315.906 84.9682ZM315.845 83.9983V84.5472H318.845V83.9983H315.845ZM318.753 83.4803C317.719 80.6696 316.689 78.0286 315.666 75.5727L312.897 76.7265C313.901 79.1377 314.916 81.7389 315.938 84.5164L318.753 83.4803ZM315.666 75.5727C300.714 39.6841 279.589 20.4561 257.133 10.4153C234.736 0.400934 211.168 -0.403122 191.453 0.25145L191.552 3.2498C211.15 2.59913 234.154 3.42663 255.909 13.154C277.605 22.8552 298.212 41.4792 312.897 76.7265L315.666 75.5727ZM191.453 0.25145C189.504 0.316144 187.537 0.371219 185.55 0.426837L185.634 3.42566C187.62 3.37008 189.595 3.31479 191.552 3.2498L191.453 0.25145ZM185.55 0.426837C166.692 0.954794 146.11 1.51082 126.722 10.974C107.257 20.4746 89.187 38.8405 74.9969 74.5582L77.7849 75.6658C91.7692 40.4662 109.397 22.7683 128.038 13.67C146.755 4.53429 166.687 3.9561 185.634 3.42566L185.55 0.426837ZM77.8255 74.6605L77.7852 74.559L74.9965 75.6649L75.0368 75.7665L77.8255 74.6605Z" fill="black"/>
</svg>
