<svg width="127" height="127" viewBox="0 0 127 127" fill="none" xmlns="http://www.w3.org/2000/svg">
<path fill-rule="evenodd" clip-rule="evenodd" d="M109.43 50.9455L35.8198 124.089L2.42617 90.482L76.0555 17.3196L76.0555 17.3196C85.3358 8.0982 100.334 8.14591 109.556 17.4262C118.777 26.7064 118.729 41.705 109.449 50.9263C109.443 50.9327 109.436 50.9391 109.43 50.9455Z" fill="#54A688"/>
<path d="M109.43 50.9455L108.374 49.8801L108.373 49.8815L109.43 50.9455ZM35.8198 124.089L34.7558 125.146L35.8131 126.21L36.8771 125.153L35.8198 124.089ZM2.42617 90.482L1.36889 89.418L0.304858 90.4753L1.36214 91.5393L2.42617 90.482ZM76.0555 17.3196L76.7318 15.9807L75.7659 15.4928L74.9982 16.2556L76.0555 17.3196ZM76.0555 17.3196L75.3792 18.6585L76.3452 19.1464L77.1128 18.3836L76.0555 17.3196ZM108.373 49.8815L34.7625 123.025L36.8771 125.153L110.487 52.0095L108.373 49.8815ZM36.8838 123.031L3.4902 89.4247L1.36214 91.5393L34.7558 125.146L36.8838 123.031ZM3.48345 91.546L77.1128 18.3836L74.9982 16.2556L1.36889 89.418L3.48345 91.546ZM75.3792 18.6585L75.3792 18.6585L76.7318 15.9807L76.7318 15.9807L75.3792 18.6585ZM77.1128 18.3836C85.8054 9.74615 99.8542 9.79084 108.492 18.4834L110.62 16.3689C100.814 6.50098 84.8661 6.45025 74.9982 16.2556L77.1128 18.3836ZM108.492 18.4834C117.129 27.176 117.084 41.2248 108.392 49.8623L110.506 51.9904C120.374 42.1851 120.425 26.2368 110.62 16.3689L108.492 18.4834ZM108.392 49.8623C108.386 49.8684 108.38 49.8743 108.374 49.8801L110.486 52.0109C110.493 52.0039 110.5 51.997 110.506 51.9904L108.392 49.8623Z" fill="black"/>
<path d="M19.123 107.285L109.556 17.4261" stroke="black" stroke-width="3" stroke-linecap="round" stroke-linejoin="round"/>
</svg>
