<svg width="232" height="234" viewBox="0 0 232 234" fill="none" xmlns="http://www.w3.org/2000/svg">
<path fill-rule="evenodd" clip-rule="evenodd" d="M157.563 96.2568L100.447 182.927L60.888 156.858L117.99 70.2078C117.995 70.201 117.999 70.1941 118.004 70.1873C125.203 59.2633 139.894 56.2435 150.818 63.4424C161.742 70.6413 164.762 85.3328 157.563 96.2568Z" fill="#93B4A0"/>
<path d="M157.563 96.2568L158.816 97.0821L158.816 97.0821L157.563 96.2568ZM100.447 182.927L99.6218 184.18L100.874 185.005L101.7 183.753L100.447 182.927ZM60.888 156.858L59.6355 156.032L58.8101 157.285L60.0626 158.11L60.888 156.858ZM117.99 70.2078L119.243 71.0332L119.244 71.0319L117.99 70.2078ZM156.311 95.4314L99.1947 182.102L101.7 183.753L158.816 97.0821L156.311 95.4314ZM101.273 181.675L61.7134 155.605L60.0626 158.11L99.6218 184.18L101.273 181.675ZM62.1405 157.683L119.243 71.0332L116.738 69.3824L59.6355 156.032L62.1405 157.683ZM119.244 71.0319C119.248 71.0255 119.252 71.0191 119.256 71.0127L116.751 69.3619C116.747 69.3692 116.742 69.3764 116.737 69.3837L119.244 71.0319ZM119.256 71.0127C125.999 60.7804 139.761 57.9519 149.993 64.6949L151.644 62.1899C140.028 54.5352 124.406 57.7462 116.751 69.3619L119.256 71.0127ZM149.993 64.6949C160.225 71.438 163.054 85.1991 156.311 95.4314L158.816 97.0821C166.47 85.4665 163.259 69.8447 151.644 62.1899L149.993 64.6949Z" fill="black"/>
<path d="M80.6675 169.893L150.818 63.4425" stroke="black" stroke-width="3" stroke-linecap="round" stroke-linejoin="round"/>
</svg>
