<svg width="119" height="146" viewBox="0 0 119 146" fill="none" xmlns="http://www.w3.org/2000/svg">
<g filter="url(#filter0_d_72_1099)">
<path fill-rule="evenodd" clip-rule="evenodd" d="M103.563 48.2567L46.4472 134.927L6.88806 108.858L63.9904 22.2078C63.9949 22.2009 63.9994 22.1941 64.0039 22.1872C71.2028 11.2633 85.8943 8.24351 96.8183 15.4424C107.742 22.6413 110.762 37.3328 103.563 48.2567Z" fill="#93B4A0"/>
<path fill-rule="evenodd" clip-rule="evenodd" d="M95.9929 16.6949C85.7606 9.95185 71.9995 12.7804 65.2564 23.0126L65.2437 23.0319L65.2429 23.0332L8.96591 108.431L46.0201 132.849L102.311 47.4313C109.054 37.1991 106.225 23.4379 95.9929 16.6949ZM62.7514 21.3619C70.4062 9.74616 86.028 6.53517 97.6437 14.1899C109.259 21.8447 112.47 37.4664 104.816 49.0821L46.8743 137.005L4.81016 109.285L62.7514 21.3619Z" fill="black"/>
<path fill-rule="evenodd" clip-rule="evenodd" d="M97.6437 14.19C98.3355 14.6458 98.5267 15.5761 98.0708 16.2678L27.9202 122.718C27.4643 123.41 26.534 123.601 25.8423 123.145C25.1505 122.689 24.9593 121.759 25.4152 121.067L95.5658 14.6171C96.0217 13.9253 96.952 13.7341 97.6437 14.19Z" fill="black"/>
</g>
<defs>
<filter id="filter0_d_72_1099" x="0.810181" y="10.0309" width="112.164" height="134.974" filterUnits="userSpaceOnUse" color-interpolation-filters="sRGB">
<feFlood flood-opacity="0" result="BackgroundImageFix"/>
<feColorMatrix in="SourceAlpha" type="matrix" values="0 0 0 0 0 0 0 0 0 0 0 0 0 0 0 0 0 0 127 0" result="hardAlpha"/>
<feOffset dy="4"/>
<feGaussianBlur stdDeviation="2"/>
<feComposite in2="hardAlpha" operator="out"/>
<feColorMatrix type="matrix" values="0 0 0 0 0 0 0 0 0 0 0 0 0 0 0 0 0 0 0.25 0"/>
<feBlend mode="normal" in2="BackgroundImageFix" result="effect1_dropShadow_72_1099"/>
<feBlend mode="normal" in="SourceGraphic" in2="effect1_dropShadow_72_1099" result="shape"/>
</filter>
</defs>
</svg>
