<svg width="115" height="138" viewBox="0 0 115 138" fill="none" xmlns="http://www.w3.org/2000/svg">
<path fill-rule="evenodd" clip-rule="evenodd" d="M99.5631 48.2568L42.4471 134.927L2.88797 108.858L59.9903 22.2078C59.9948 22.201 59.9993 22.1941 60.0039 22.1873C67.2027 11.2633 81.8942 8.24357 92.8182 15.4425C103.742 22.6414 106.762 37.3328 99.5631 48.2568Z" fill="#93B4A0"/>
<path fill-rule="evenodd" clip-rule="evenodd" d="M91.9928 16.695C81.7606 9.95191 67.9994 12.7805 61.2563 23.0127L61.2437 23.032L61.2428 23.0332L4.96585 108.431L42.0201 132.849L98.3106 47.4314C105.054 37.1992 102.225 23.438 91.9928 16.695ZM58.7514 21.3619C66.4061 9.74622 82.0279 6.53523 93.6436 14.19C105.259 21.8447 108.47 37.4665 100.816 49.0822L42.8743 137.005L0.810095 109.285L58.7514 21.3619Z" fill="black"/>
<path fill-rule="evenodd" clip-rule="evenodd" d="M93.6436 14.19C94.3353 14.6459 94.5266 15.5762 94.0707 16.2679L23.92 122.718C23.4642 123.41 22.5339 123.601 21.8422 123.145C21.1504 122.689 20.9592 121.759 21.4151 121.067L91.5657 14.6171C92.0216 13.9254 92.9519 13.7342 93.6436 14.19Z" fill="black"/>
</svg>
