<svg width="274" height="233" viewBox="0 0 274 233" fill="none" xmlns="http://www.w3.org/2000/svg">
<mask id="path-1-inside-1_14_814" fill="white">
<path fill-rule="evenodd" clip-rule="evenodd" d="M189.566 132.203L111.964 168.321L122.799 191.602L122.884 191.562C126.782 196.458 145.637 192.989 166.197 183.42C186.757 173.85 201.553 161.658 200.317 155.523L200.402 155.484L200.078 154.787C200.076 154.784 200.075 154.781 200.073 154.778C200.072 154.775 200.07 154.772 200.069 154.769L189.566 132.203Z"/>
</mask>
<path fill-rule="evenodd" clip-rule="evenodd" d="M189.566 132.203L111.964 168.321L122.799 191.602L122.884 191.562C126.782 196.458 145.637 192.989 166.197 183.42C186.757 173.85 201.553 161.658 200.317 155.523L200.402 155.484L200.078 154.787C200.076 154.784 200.075 154.781 200.073 154.778C200.072 154.775 200.07 154.772 200.069 154.769L189.566 132.203Z" fill="#D9D9D9"/>
<path d="M111.964 168.321L110.698 165.601L107.978 166.867L109.244 169.587L111.964 168.321ZM189.566 132.203L192.286 130.937L191.02 128.218L188.3 129.483L189.566 132.203ZM122.799 191.602L120.08 192.868L121.345 195.588L124.065 194.322L122.799 191.602ZM122.884 191.562L125.231 189.694L123.76 187.846L121.618 188.843L122.884 191.562ZM200.317 155.523L199.051 152.804L196.909 153.8L197.376 156.116L200.317 155.523ZM200.402 155.484L201.668 158.204L204.387 156.938L203.121 154.218L200.402 155.484ZM113.23 171.041L190.832 134.923L188.3 129.483L110.698 165.601L113.23 171.041ZM125.519 190.336L114.684 167.055L109.244 169.587L120.08 192.868L125.519 190.336ZM121.618 188.843L121.533 188.882L124.065 194.322L124.15 194.282L121.618 188.843ZM164.931 180.7C154.819 185.406 145.208 188.572 137.742 189.966C133.995 190.666 130.919 190.895 128.647 190.711C126.219 190.514 125.401 189.906 125.231 189.694L120.537 193.431C122.317 195.666 125.317 196.461 128.163 196.691C131.165 196.935 134.819 196.616 138.843 195.864C146.92 194.356 157.016 191.002 167.463 186.139L164.931 180.7ZM197.376 156.116C197.43 156.382 197.367 157.4 195.954 159.385C194.633 161.241 192.477 163.448 189.529 165.863C183.655 170.678 175.044 175.993 164.931 180.7L167.463 186.139C177.91 181.277 186.978 175.712 193.332 170.504C196.499 167.909 199.095 165.319 200.842 162.865C202.498 160.539 203.822 157.732 203.258 154.931L197.376 156.116ZM199.136 152.764L199.051 152.804L201.583 158.243L201.668 158.204L199.136 152.764ZM197.358 156.053L197.682 156.75L203.121 154.218L202.797 153.522L197.358 156.053ZM197.353 156.044C197.352 156.042 197.352 156.041 197.353 156.043C197.353 156.044 197.355 156.048 197.358 156.053L202.797 153.522C202.798 153.524 202.799 153.525 202.798 153.523C202.798 153.522 202.796 153.518 202.793 153.513L197.353 156.044ZM197.349 156.035C197.352 156.04 197.354 156.045 197.354 156.046C197.355 156.048 197.354 156.046 197.353 156.044L202.793 153.513C202.791 153.507 202.789 153.503 202.788 153.502C202.787 153.5 202.788 153.501 202.789 153.504L197.349 156.035ZM186.846 133.469L197.349 156.035L202.789 153.504L192.286 130.937L186.846 133.469Z" fill="black" mask="url(#path-1-inside-1_14_814)"/>
<path d="M161.37 169.359C219.813 142.158 248.374 79.678 225.163 29.8063L13.5204 128.31C36.7319 178.181 102.926 196.56 161.37 169.359Z" fill="#FCFFFF"/>
<path d="M224.424 31.8047C246.053 80.5076 218.102 141.3 160.737 167.999C103.372 194.698 38.8611 176.94 15.5253 129.031L224.424 31.8047Z" stroke="black" stroke-width="3"/>
<ellipse cx="119.013" cy="78.3525" rx="116.721" ry="31.1257" transform="rotate(-24.9584 119.013 78.3525)" fill="#D9D9D9"/>
<path d="M222.9 36.0092C222.9 36.0092 215.491 64.3482 130.834 103.75C70.795 134.268 25.0564 132.811 25.0564 132.811C25.0564 132.811 53.2485 93.5116 111.692 66.3106C170.135 39.1097 222.9 36.0092 222.9 36.0092Z" fill="#CA6922"/>
<path d="M223.475 29.7337C224.946 32.8951 224.085 37.3802 220.37 43.1425C216.703 48.8303 210.497 55.3649 202.165 62.3292C185.518 76.2433 160.653 91.6498 131.514 105.212C102.375 118.773 74.5769 127.878 53.2121 131.656C42.5184 133.546 33.523 134.087 26.81 133.23C20.009 132.362 16.0232 130.133 14.5518 126.971C13.0805 123.81 13.9411 119.325 17.6563 113.562C21.3234 107.875 27.5289 101.34 35.8612 94.3758C52.5083 80.4617 77.3737 65.0552 106.512 51.4934C135.651 37.9316 163.449 28.8271 184.814 25.0495C195.508 23.1588 204.503 22.6184 211.216 23.4751C218.017 24.3429 222.003 26.5724 223.475 29.7337Z" stroke="black" stroke-width="3"/>
<path d="M72.0166 65.8941C48.6392 76.7745 38.5084 104.546 49.3888 127.923L134.046 88.5219C123.165 65.1445 95.394 55.0137 72.0166 65.8941Z" fill="#F0E0B8"/>
<path d="M134.046 88.5219C123.165 65.1445 95.394 55.0137 72.0166 65.8941C48.6392 76.7745 38.5084 104.546 49.3888 127.923" stroke="black" stroke-width="3" stroke-linecap="round"/>
<path d="M124.875 92.7904C116.352 74.4781 94.5973 66.5423 76.285 75.0653C57.9727 83.5882 50.0369 105.343 58.5599 123.655" stroke="black" stroke-width="3" stroke-linecap="round"/>
<path d="M114.998 97.3872C109.014 84.5296 93.7394 78.9577 80.8819 84.9419C68.0243 90.9261 62.4524 106.2 68.4366 119.058" stroke="black" stroke-width="3" stroke-linecap="round"/>
<path d="M105.827 101.656C102.2 93.8632 92.9429 90.4863 85.1504 94.1131C77.3579 97.7399 73.981 106.997 77.6078 114.789" stroke="black" stroke-width="3" stroke-linecap="round"/>
<path d="M68.0418 114.521C55.6254 120.3 47.234 128.211 44.5903 131.444L75.5093 121.345L134.13 97.9238C137.559 93.6103 144.133 85.1146 143.004 85.64C141.593 86.2967 132.575 78.907 106.137 96.7905C79.6999 114.674 83.5622 107.298 68.0418 114.521Z" fill="#CA6922"/>
<path d="M117.014 97.1092C104.598 102.888 96.2066 110.799 93.5629 114.032L124.482 103.933L169.024 79.7688C173.887 64.3998 192.682 67.8996 190.384 62.9613C188.085 58.023 181.548 61.495 155.11 79.3785C128.673 97.2621 132.535 89.8856 117.014 97.1092Z" fill="#CA6922"/>
<rect x="164.65" y="52.3991" width="16.5932" height="4.83968" fill="#3F6731"/>
<rect x="158.427" y="80.5071" width="16.5932" height="4.83968" transform="rotate(-43.9437 158.427 80.5071)" fill="#3F6731"/>
<rect x="76.8439" y="117.445" width="16.5932" height="4.83968" transform="rotate(-19.6771 76.8439 117.445)" fill="#3F6731"/>
</svg>
