<svg width="50" height="40" viewBox="0 0 50 40" fill="none" xmlns="http://www.w3.org/2000/svg">
<rect x="1" y="1" width="48" height="38" rx="2" fill="white" stroke="black" stroke-width="2"/>
<path d="M25.2 35.08C23.1467 35.08 21.2533 34.7333 19.52 34.04C17.7867 33.3467 16.28 32.36 15 31.08C13.7467 29.8267 12.76 28.3467 12.04 26.64C11.3467 24.9333 11 23.0667 11 21.04C11 18.88 11.3467 16.88 12.04 15.04C12.76 13.2 13.76 11.6133 15.04 10.28C16.32 8.92 17.8267 7.86667 19.56 7.12C21.2933 6.37333 23.1733 6 25.2 6C27.0133 6 28.7067 6.30667 30.28 6.92C31.8533 7.53333 33.2267 8.4 34.4 9.52C35.5733 10.6133 36.48 11.9067 37.12 13.4C37.7867 14.8667 38.12 16.4533 38.12 18.16C38.12 19.9733 37.8 21.5867 37.16 23C36.5467 24.4133 35.68 25.52 34.56 26.32C33.4667 27.0933 32.2 27.48 30.76 27.48C28.84 27.48 27.4933 26.9467 26.72 25.88C25.52 26.92 24.2 27.44 22.76 27.44C21.72 27.44 20.7733 27.16 19.92 26.6C19.0933 26.04 18.4267 25.2933 17.92 24.36C17.44 23.4 17.2 22.3467 17.2 21.2C17.2 19.8133 17.5067 18.56 18.12 17.44C18.7333 16.32 19.5467 15.44 20.56 14.8C21.6 14.1333 22.76 13.8 24.04 13.8C24.7067 13.8 25.3333 13.9067 25.92 14.12C26.5067 14.3333 27.0267 14.6267 27.48 15L27.6 14.32H31.56L29.88 22.64C29.7467 23.2533 29.8133 23.7333 30.08 24.08C30.3467 24.4 30.7733 24.56 31.36 24.56C32.1333 24.56 32.8 24.3067 33.36 23.8C33.9467 23.2667 34.4 22.5467 34.72 21.64C35.04 20.7067 35.2 19.64 35.2 18.44C35.2 16.5467 34.76 14.8667 33.88 13.4C33 11.9067 31.7867 10.7333 30.24 9.88C28.72 9 27 8.56 25.08 8.56C23.48 8.56 22 8.86667 20.64 9.48C19.28 10.0933 18.0933 10.96 17.08 12.08C16.0667 13.1733 15.2667 14.4667 14.68 15.96C14.12 17.4267 13.84 19.0267 13.84 20.76C13.84 23.0267 14.32 25.0267 15.28 26.76C16.24 28.4933 17.5733 29.84 19.28 30.8C20.9867 31.7867 22.9467 32.28 25.16 32.28C26.3333 32.28 27.4267 32.16 28.44 31.92C29.48 31.7067 30.4533 31.36 31.36 30.88L32.4 33.36C30 34.5067 27.6 35.08 25.2 35.08ZM23.72 24.08C24.5467 24.08 25.3067 23.7867 26 23.2C26 22.9867 26.0133 22.7867 26.04 22.6C26.0667 22.4133 26.0933 22.2267 26.12 22.04L26.8 18.56C26.5067 18.1333 26.1333 17.8133 25.68 17.6C25.2533 17.3867 24.76 17.28 24.2 17.28C23.6133 17.28 23.0667 17.4533 22.56 17.8C22.08 18.12 21.6933 18.5467 21.4 19.08C21.1067 19.6133 20.96 20.2 20.96 20.84C20.96 21.7733 21.2133 22.5467 21.72 23.16C22.2533 23.7733 22.92 24.08 23.72 24.08Z" fill="black"/>
</svg>
